<svg width="14" height="14" viewBox="0 0 14 14" fill="none" xmlns="http://www.w3.org/2000/svg">
<path d="M4.50424 5.92084H3.14237C3.02672 5.92084 2.93311 6.01445 2.93311 6.1301V7.49197C2.93311 7.60748 3.02672 7.70123 3.14237 7.70123H4.50424C4.61989 7.70123 4.7135 7.60748 4.7135 7.49197V6.1301C4.7135 6.01459 4.61989 5.92084 4.50424 5.92084ZM4.29498 7.28271H3.35163V6.33936H4.29498V7.28271Z" fill="#FFFBFB"/>
<path d="M7.68051 5.92084H6.31864C6.20298 5.92084 6.10938 6.01445 6.10938 6.1301V7.49197C6.10938 7.60748 6.20298 7.70123 6.31864 7.70123H7.68051C7.79602 7.70123 7.88977 7.60748 7.88977 7.49197V6.1301C7.88977 6.01459 7.79602 5.92084 7.68051 5.92084ZM7.47125 7.28271H6.5279V6.33936H7.47125V7.28271Z" fill="#FFFBFB"/>
<path d="M10.7591 5.92084H9.39725C9.28174 5.92084 9.18799 6.01445 9.18799 6.1301V7.49197C9.18799 7.60748 9.28174 7.70123 9.39725 7.70123H10.7591C10.8746 7.70123 10.9684 7.60748 10.9684 7.49197V6.1301C10.9684 6.01459 10.8746 5.92084 10.7591 5.92084ZM10.5499 7.28271H9.60651V6.33936H10.5499V7.28271Z" fill="#FFFBFB"/>
<path d="M4.50424 9.02295H3.14237C3.02672 9.02295 2.93311 9.1167 2.93311 9.23221V10.5941C2.93311 10.7096 3.02672 10.8033 3.14237 10.8033H4.50424C4.61989 10.8033 4.7135 10.7096 4.7135 10.5941V9.23221C4.7135 9.1167 4.61989 9.02295 4.50424 9.02295ZM4.29498 10.3848H3.35163V9.44147H4.29498V10.3848Z" fill="#FFFBFB"/>
<path d="M7.68051 9.02295H6.31864C6.20298 9.02295 6.10938 9.1167 6.10938 9.23221V10.5941C6.10938 10.7096 6.20298 10.8033 6.31864 10.8033H7.68051C7.79602 10.8033 7.88977 10.7096 7.88977 10.5941V9.23221C7.88977 9.1167 7.79602 9.02295 7.68051 9.02295ZM7.47125 10.3848H6.5279V9.44147H7.47125V10.3848Z" fill="#FFFBFB"/>
<path d="M10.7591 9.02295H9.39725C9.28174 9.02295 9.18799 9.1167 9.18799 9.23221V10.5941C9.18799 10.7096 9.28174 10.8033 9.39725 10.8033H10.7591C10.8746 10.8033 10.9684 10.7096 10.9684 10.5941V9.23221C10.9684 9.1167 10.8746 9.02295 10.7591 9.02295ZM10.5499 10.3848H9.60651V9.44147H10.5499V10.3848Z" fill="#FFFBFB"/>
<path d="M12.4164 1.86857H11.0343C11.0325 1.86857 11.0309 1.86899 11.0291 1.86913V1.59039C11.0291 1.13448 10.6583 0.763672 10.2024 0.763672C9.7465 0.763672 9.37569 1.13462 9.37569 1.59039V1.86857H7.81836V1.59039C7.81836 1.13448 7.44755 0.763672 6.99164 0.763672C6.53573 0.763672 6.16492 1.13462 6.16492 1.59039V1.86857H4.60746V1.59039C4.60746 1.13448 4.23665 0.763672 3.78074 0.763672C3.32483 0.763672 2.95402 1.13462 2.95402 1.59039V1.86871C2.95332 1.86871 2.95262 1.86857 2.95192 1.86857H1.5701C1.45445 1.86857 1.36084 1.96218 1.36084 2.07783V12.924C1.36084 13.0395 1.45445 13.1332 1.5701 13.1332H12.4164C12.5319 13.1332 12.6257 13.0395 12.6257 12.924V2.07783C12.6257 1.96218 12.5319 1.86857 12.4164 1.86857ZM9.79421 1.59039C9.79421 1.36523 9.97724 1.18219 10.2024 1.18219C10.4276 1.18219 10.6106 1.36523 10.6106 1.59039V2.7451C10.6106 2.97012 10.4276 3.1533 10.2024 3.1533C9.97724 3.1533 9.79421 2.97026 9.79421 2.7451V1.59039ZM6.99164 1.18219C7.21667 1.18219 7.39984 1.36523 7.39984 1.59039V2.7451C7.39984 2.97012 7.21681 3.1533 6.99164 3.1533C6.76648 3.1533 6.58344 2.97026 6.58344 2.7451V2.09736C6.584 2.09081 6.5854 2.08453 6.5854 2.07769C6.5854 2.07086 6.584 2.06458 6.58344 2.05802V1.59039C6.58344 1.36523 6.76648 1.18219 6.99164 1.18219ZM3.37254 1.59039C3.37254 1.36523 3.55557 1.18219 3.78074 1.18219C4.00576 1.18219 4.18894 1.36523 4.18894 1.59039V2.7451C4.18894 2.97012 4.0059 3.1533 3.78074 3.1533C3.55557 3.1533 3.37254 2.97026 3.37254 2.7451V1.59039ZM12.2071 12.7147H1.77936V2.28709H2.95192C2.95262 2.28709 2.95332 2.28695 2.95402 2.28695V2.74524C2.95402 3.20115 3.32497 3.57196 3.78074 3.57196C4.23651 3.57196 4.60746 3.20115 4.60746 2.74524V2.28723H6.16492V2.74524C6.16492 3.20115 6.53587 3.57196 6.99164 3.57196C7.44741 3.57196 7.81836 3.20115 7.81836 2.74524V2.28723H9.37569V2.74524C9.37569 3.20115 9.7465 3.57196 10.2024 3.57196C10.6583 3.57196 11.0291 3.20115 11.0291 2.74524V2.28654C11.0309 2.28654 11.0325 2.28709 11.0343 2.28709H12.2071V12.7147Z" fill="#FFFBFB"/>
</svg>
