<svg width="30" height="25" viewBox="0 0 30 25" fill="none" xmlns="http://www.w3.org/2000/svg">
<path d="M2.17891 8.2935V4.9602L7.16937 7.10136V9.83163C7.16937 9.83163 7.19522 9.82396 7.23874 9.81132C7.31546 11.2278 8.21333 12.5096 9.62485 13.4448C11.1017 14.425 13.1487 15.0325 15.403 15.0321C17.6573 15.0326 19.7051 14.425 21.1812 13.4448C22.5934 12.5096 23.4912 11.2278 23.5674 9.81132C23.6115 9.82396 23.6373 9.83163 23.6373 9.83163V7.10136L30 4.37158L15.4029 0L0.806709 4.37163V8.2935C0.344523 8.36605 0 8.63964 0 8.96815V9.16688H2.98621V8.96815C2.98621 8.63964 2.64095 8.36605 2.17891 8.2935ZM8.73309 9.49144C10.3738 9.23046 13.0372 9.07816 15.4029 10.176C17.7687 9.07816 20.4329 9.23046 22.0735 9.49144C22.0748 9.53202 22.0775 9.5725 22.0775 9.61308C22.0775 10.8372 21.332 11.9404 20.1229 12.7432C18.9125 13.5449 17.2488 14.0393 15.4029 14.0397C13.5578 14.0393 11.894 13.5449 10.6837 12.7432C9.47464 11.9405 8.72904 10.8372 8.72838 9.61308C8.72838 9.5725 8.73177 9.53202 8.73309 9.49144Z" fill="#FFEA00"/>
<path d="M0 10.7222C0 11.1062 0.468887 11.4171 1.048 11.4171H1.93828C2.51659 11.4171 2.98621 11.1061 2.98621 10.7222V9.58057H0V10.7222Z" fill="#FFEA00"/>
<path d="M20.2271 15.3333C20.2271 15.3333 19.9926 15.4576 19.5698 15.6194L15.4031 20.2953L11.2363 15.6194C10.8136 15.4576 10.5792 15.3333 10.5792 15.3333C6.80858 16.4361 5.25635 19.0838 5.25635 21.1795C5.25635 23.2757 5.25635 25 5.25635 25H25.5507C25.5507 25 25.5507 23.2757 25.5507 21.1795C25.5506 19.0838 23.9976 16.4361 20.2271 15.3333Z" fill="#FFEA00"/>
</svg>
