<svg width="17" height="15" viewBox="0 0 17 15" fill="none" xmlns="http://www.w3.org/2000/svg">
<path fill-rule="evenodd" clip-rule="evenodd" d="M5.22472 3.03697C6.13113 2.26232 7.22297 1.875 8.50016 1.875C9.77736 1.875 10.864 2.25792 11.7601 3.02377C12.6563 3.78962 13.1043 4.71831 13.1043 5.80986C13.1043 6.35562 12.9447 6.98063 12.6254 7.68488C12.306 8.38906 11.9198 9.04931 11.4666 9.6655C11.0134 10.2817 10.5654 10.8583 10.1225 11.3953C9.67954 11.9323 9.30355 12.3591 8.99458 12.6761L8.50016 13.125C8.37656 13.0017 8.21173 12.8389 8.00575 12.6364C7.79976 12.434 7.42895 12.0291 6.89334 11.4216C6.35773 10.8142 5.88908 10.2245 5.48737 9.65231C5.08566 9.08012 4.72001 8.43313 4.39041 7.71125C4.0608 6.98944 3.896 6.35562 3.896 5.80986C3.896 4.71831 4.3389 3.79402 5.22472 3.03697Z" stroke="white" stroke-linecap="round" stroke-linejoin="round"/>
<path d="M9.20817 5.9375C9.20817 6.28269 8.89105 6.5625 8.49984 6.5625C8.10862 6.5625 7.7915 6.28269 7.7915 5.9375C7.7915 5.59232 8.10862 5.3125 8.49984 5.3125C8.89105 5.3125 9.20817 5.59232 9.20817 5.9375Z" stroke="white" stroke-linecap="round" stroke-linejoin="round"/>
</svg>
