<svg width="31" height="25" viewBox="0 0 31 25" fill="none" xmlns="http://www.w3.org/2000/svg">
<g clip-path="url(#clip0_205_65)">
<path d="M28.051 14.907V10.7675H27.4831C25.0787 10.7675 22.9343 11.1031 21.1698 11.5347C20.9599 11.1918 20.73 10.8422 20.5064 10.5132C20.6027 10.4429 20.6981 10.3707 20.7899 10.2967C22.142 9.20703 22.9807 7.69644 22.9798 6.03188C22.9807 4.36738 22.142 2.85679 20.7899 1.76743C19.4379 0.675635 17.5642 0 15.5006 0C13.4371 0 11.5635 0.675635 10.2123 1.76748C8.86023 2.85679 8.0216 4.36738 8.0216 6.03193C8.0216 7.69648 8.86023 9.20708 10.2123 10.2967C10.3041 10.3708 10.3985 10.444 10.4958 10.5133C10.2714 10.8423 10.0415 11.1918 9.83158 11.5348C8.0661 11.1031 5.92346 10.7675 3.51915 10.7675H2.95122V14.907C1.23665 14.9327 0.580566 16.0729 0.580566 17.4769C0.580566 18.8809 1.23665 20.0211 2.95122 20.0468V23.3417L3.49826 23.3571H3.5137C3.68541 23.3619 5.2474 23.4161 7.36363 23.6447C9.47902 23.8726 12.1495 24.2774 14.5229 24.9725L14.6165 25H16.3857L16.4792 24.9725C18.928 24.2551 21.6958 23.8473 23.8411 23.6234C24.9151 23.5117 25.8329 23.4447 26.4816 23.4059C26.806 23.3864 27.0631 23.3743 27.2385 23.3663C27.3258 23.3629 27.3921 23.36 27.4375 23.3589C27.4593 23.3578 27.4766 23.3571 27.4866 23.3571H27.5029L28.0508 23.3417V20.0467C29.7654 20.02 30.4196 18.8809 30.4196 17.4769C30.4198 16.0729 29.7656 14.9334 28.051 14.907ZM3.01219 19.1319C2.99312 19.1319 2.97308 19.1319 2.95128 19.1312C2.56148 19.1278 1.71643 19.0454 1.71643 17.4769C1.71643 15.908 2.56148 15.8256 2.95128 15.8226C2.97308 15.8215 2.99312 15.8215 3.01219 15.8215C3.40562 15.8215 3.77363 15.9124 4.08623 16.0678C4.67317 16.3587 5.06388 16.8819 5.06388 17.4769C5.06388 18.0719 4.67317 18.5948 4.08623 18.8857C3.77363 19.0414 3.40562 19.1319 3.01219 19.1319ZM13.9642 13.9775V23.8536C11.658 23.2615 9.23732 22.9185 7.30557 22.7152C5.8826 22.5665 4.72772 22.4964 4.08623 22.4649V19.8979C5.31927 19.5418 6.19968 18.5929 6.19968 17.4769C6.19968 16.3608 5.31921 15.4115 4.08623 15.0558V11.6905C7.04473 11.7586 9.56536 12.3514 11.3754 12.9468C12.3377 13.2619 13.0991 13.5774 13.6143 13.8126C13.747 13.8734 13.8642 13.9284 13.9642 13.9771V13.9775ZM16.2803 24.058C16.2503 24.0661 16.2194 24.0752 16.1894 24.0844H14.8128C14.7829 24.0752 14.7529 24.0661 14.721 24.058V14.2771H16.2803V24.058ZM15.5006 11.1661C13.7706 11.1661 12.2068 10.6118 11.0601 9.71045C11.0401 9.69434 11.0201 9.67891 10.9992 9.66284C10.3767 9.16011 9.88426 8.55596 9.56167 7.88257C10.6793 7.71255 11.7061 7.37256 12.622 6.95337C14.1658 6.24771 15.4025 5.31963 16.2603 4.56816C16.631 4.24351 16.93 3.95151 17.1517 3.72363C17.5088 4.09482 18.0476 4.63926 18.6619 5.20386C19.2134 5.7106 19.825 6.23345 20.4319 6.66763C20.7345 6.8853 21.0371 7.08091 21.3369 7.24248C21.4387 7.29634 21.5396 7.34541 21.6405 7.39194C21.3451 8.26284 20.7736 9.04106 20.0031 9.66284C19.9821 9.67896 19.9622 9.69546 19.9413 9.71157C18.7927 10.6129 17.229 11.1661 15.5006 11.1661ZM26.916 22.4649C26.2745 22.4964 25.1196 22.5665 23.6949 22.7152C21.7649 22.9174 19.3442 23.2615 17.0381 23.8536C17.0381 23.8536 17.0381 23.8536 17.0373 23.8536V13.9764C17.0381 13.9764 17.0381 13.9764 17.0381 13.9764C17.5324 13.7372 18.4402 13.3334 19.6714 12.9314C21.4778 12.3423 23.9811 11.7575 26.9161 11.6905V15.0558C25.6831 15.4115 24.8017 16.3608 24.8017 17.4769C24.8017 18.5929 25.6831 19.5418 26.9161 19.8979L26.916 22.4649ZM28.051 19.1312C28.0283 19.1319 28.0083 19.1319 27.9892 19.1319C27.5958 19.1319 27.2286 19.0425 26.9161 18.8868C26.3291 18.5948 25.9366 18.0719 25.9366 17.4769C25.9366 16.8819 26.3291 16.3587 26.9161 16.0667C27.2286 15.9113 27.5958 15.8215 27.9892 15.8215C28.0083 15.8215 28.0283 15.8215 28.051 15.8226C28.4417 15.8267 29.2849 15.9102 29.2849 17.4769C29.2849 19.0436 28.4417 19.1271 28.051 19.1312Z" fill="#FFEA00"/>
<path d="M13.0411 8.47358C13.4592 8.47358 13.7981 8.20028 13.7981 7.86313C13.7981 7.52599 13.4592 7.25269 13.0411 7.25269C12.6231 7.25269 12.2842 7.52599 12.2842 7.86313C12.2842 8.20028 12.6231 8.47358 13.0411 8.47358Z" fill="#FFEA00"/>
<path d="M17.9606 8.47358C18.3786 8.47358 18.7175 8.20028 18.7175 7.86313C18.7175 7.52599 18.3786 7.25269 17.9606 7.25269C17.5425 7.25269 17.2036 7.52599 17.2036 7.86313C17.2036 8.20028 17.5425 8.47358 17.9606 8.47358Z" fill="#FFEA00"/>
</g>
<defs>
<clipPath id="clip0_205_65">
<rect width="31" height="25" fill="white"/>
</clipPath>
</defs>
</svg>
