<svg width="25" height="25" viewBox="0 0 25 25" fill="none" xmlns="http://www.w3.org/2000/svg">
<g clip-path="url(#clip0_205_61)">
<path d="M17.207 8.02734H7.79297L12.3047 4.33594V3.02734V1.11328V0.722656H12.6855V1.10352H14.8047V3.02734H12.6953V4.33594L17.207 8.02734ZM24.8047 19.9512V23.0273H17.207V24.375H7.79297V23.0273H0.195312V19.9512H0.869141V10.7227H7.79297V8.41797H17.2168V10.7227H24.1406V19.9512H24.8047ZM2.59766 14.7559H1.64062V19.1797H2.59766V14.7559ZM2.59766 13.0273H1.64062V13.9844H2.59766V13.0273ZM4.32617 14.7559H3.36914V19.1797H4.32617V14.7559ZM4.32617 13.0273H3.36914V13.9844H4.32617V13.0273ZM6.05469 14.7559H5.09766V19.1797H6.05469V14.7559ZM6.05469 13.0273H5.09766V13.9844H6.05469V13.0273ZM7.79297 14.7559H6.83594V19.1797H7.79297V14.7559ZM7.79297 13.0273H6.83594V13.9844H7.79297V13.0273ZM14.5215 20.7227H15.8691V10.7227H14.5215V20.7227ZM11.8262 20.7227H13.1738V10.7227H11.8262V20.7227ZM9.13086 20.7227H10.4785V10.7227H9.13086V20.7227ZM16.5723 23.4863H8.42773V23.7988H16.5723V23.4863ZM16.5723 22.666H8.42773V22.9785H16.5723V22.666ZM18.1738 14.7559H17.2168V19.1797H18.1738V14.7559ZM18.1738 13.0273H17.2168V13.9844H18.1738V13.0273ZM19.9023 14.7559H18.9453V19.1797H19.9023V14.7559ZM19.9023 13.0273H18.9453V13.9844H19.9023V13.0273ZM21.6309 14.7559H20.6738V19.1797H21.6309V14.7559ZM21.6309 13.0273H20.6738V13.9844H21.6309V13.0273ZM23.3594 14.7559H22.4023V19.1797H23.3594V14.7559ZM23.3594 13.0273H22.4023V13.9844H23.3594V13.0273Z" fill="#FFEA00"/>
</g>
<defs>
<clipPath id="clip0_205_61">
<rect width="25" height="25" fill="white"/>
</clipPath>
</defs>
</svg>
