<svg width="30" height="30" viewBox="0 0 30 30" fill="none" xmlns="http://www.w3.org/2000/svg">
<g clip-path="url(#clip0_119_303)">
<path d="M27.3656 17.9651C27.1864 17.9651 27.0097 17.983 26.8373 18.0182V15.0002V11.0141C26.8373 10.7603 26.687 10.5307 26.4544 10.4292C26.2219 10.3277 25.9513 10.3736 25.7651 10.5462C25.4996 10.7924 25.1543 10.9279 24.7925 10.9279C24.0036 10.9279 23.3617 10.2858 23.3617 9.49644C23.3617 8.70712 24.0036 8.06499 24.7925 8.06499C25.1542 8.06499 25.4996 8.20058 25.7651 8.44673C25.9513 8.61935 26.2219 8.66517 26.4544 8.56369C26.687 8.46214 26.8373 8.23251 26.8373 7.9788V3.80141C26.8373 3.44897 26.5515 3.16327 26.1991 3.16327H23.7368C23.7623 3.0135 23.7753 2.8611 23.7753 2.70758C23.7753 1.21484 22.5606 0.000427246 21.0675 0.000427246C19.5747 0.000427246 18.3603 1.21484 18.3603 2.70758C18.3603 2.86104 18.3733 3.01344 18.3988 3.16327H15.0003H11.9819C12.0169 2.99088 12.0347 2.81416 12.0347 2.63487C12.0347 1.18227 10.8529 0.00048584 9.40033 0.00048584C7.94808 0.00048584 6.7666 1.18227 6.7666 2.63487C6.7666 2.81416 6.78441 2.99094 6.81945 3.16327H3.80093C3.44854 3.16327 3.16278 3.44897 3.16278 3.80141V7.90679C3.16278 8.16238 3.3153 8.39335 3.55026 8.49367C3.78522 8.59398 4.05751 8.54458 4.2422 8.36781C4.51067 8.11087 4.86235 7.96931 5.23243 7.96931C6.02134 7.96931 6.66324 8.61144 6.66324 9.40076C6.66324 10.1901 6.02134 10.8322 5.23243 10.8322C4.86235 10.8322 4.51067 10.6906 4.2422 10.4337C4.05751 10.257 3.78522 10.2075 3.55026 10.3078C3.31524 10.4082 3.16278 10.6391 3.16278 10.8947V15.0001V18.0181C2.9904 17.983 2.81362 17.9651 2.63444 17.9651C1.18178 17.9651 0 19.1469 0 20.5995C0 22.0522 1.18184 23.2339 2.63438 23.2339C2.81368 23.2339 2.9904 23.2161 3.16272 23.181V26.1995C3.16272 26.5519 3.44848 26.8377 3.80087 26.8377H6.81939C6.78435 27.01 6.76654 27.1868 6.76654 27.3661C6.76654 28.8184 7.94808 29.9998 9.40027 29.9998C10.8529 29.9998 12.0347 28.8183 12.0347 27.3661C12.0347 27.1869 12.0168 27.01 11.9818 26.8377H15.0003H18.0181C17.983 27.01 17.9652 27.1869 17.9652 27.3661C17.9652 28.8184 19.1471 29.9998 20.5996 29.9998C22.0522 29.9998 23.234 28.8183 23.234 27.3661C23.234 27.1869 23.2161 27.0101 23.181 26.8377H26.199C26.5513 26.8377 26.8372 26.552 26.8372 26.1995V23.181C27.0095 23.2161 27.1863 23.2339 27.3655 23.2339C28.8181 23.2339 29.9999 22.0521 29.9999 20.5995C29.9999 19.1469 28.8182 17.9651 27.3656 17.9651ZM15.6386 4.43956H19.3112C19.5431 4.43956 19.7567 4.31376 19.8692 4.11102C19.9817 3.90829 19.9754 3.66043 19.8527 3.46368C19.7114 3.23704 19.6367 2.97559 19.6367 2.70752C19.6367 1.91861 20.2786 1.27672 21.0675 1.27672C21.8568 1.27672 22.4989 1.91861 22.4989 2.70752C22.4989 2.97565 22.4243 3.23709 22.2829 3.46368C22.1602 3.66043 22.1539 3.90823 22.2664 4.11102C22.3788 4.31381 22.5925 4.43956 22.8244 4.43956H25.5609V6.89956C25.3139 6.8265 25.0556 6.7887 24.7926 6.7887C23.2999 6.7887 22.0854 8.00341 22.0854 9.4965C22.0854 10.9896 23.2999 12.2043 24.7926 12.2043C25.0556 12.2043 25.3139 12.1664 25.5609 12.0934V14.362H22.2188C21.9791 14.362 21.7598 14.4963 21.6506 14.7095C21.5415 14.9228 21.5611 15.1793 21.7014 15.3736C21.8691 15.6061 21.9578 15.8804 21.9578 16.1667C21.9578 16.9155 21.3486 17.5247 20.5998 17.5247C19.851 17.5247 19.2418 16.9155 19.2418 16.1667C19.2418 15.8798 19.3303 15.6056 19.4976 15.3736C19.6378 15.1794 19.6574 14.9229 19.5483 14.7095C19.4392 14.4962 19.2198 14.362 18.9801 14.362H15.6386V11.9823C15.811 12.0173 15.9877 12.0352 16.167 12.0352C17.6196 12.0352 18.8014 10.8534 18.8014 9.40082C18.8014 7.94822 17.6196 6.76644 16.167 6.76644C15.9876 6.76644 15.811 6.78425 15.6386 6.81935L15.6386 4.43956ZM4.43907 11.9904C4.69331 12.0682 4.96021 12.1086 5.23237 12.1086C6.72511 12.1086 7.93953 10.8938 7.93953 9.40076C7.93953 7.90767 6.72517 6.69296 5.23237 6.69296C4.96021 6.69296 4.69337 6.73327 4.43907 6.81114V4.43956H7.78121C8.02085 4.43956 8.24023 4.30526 8.34939 4.09198C8.45849 3.8787 8.43886 3.62217 8.29865 3.42788C8.13131 3.19602 8.04289 2.9218 8.04289 2.63481C8.04289 1.88598 8.65179 1.27678 9.40027 1.27678C10.1491 1.27678 10.7583 1.88598 10.7583 2.63481C10.7583 2.92174 10.6698 3.19596 10.5025 3.42788C10.3623 3.62211 10.3427 3.87864 10.4517 4.09198C10.5608 4.30532 10.7803 4.43956 11.0199 4.43956H14.3621V7.78169C14.3621 8.02146 14.4965 8.24101 14.71 8.35005C14.9235 8.45904 15.1802 8.43923 15.3744 8.29861C15.6057 8.13115 15.8798 8.04261 16.1668 8.04261C16.9156 8.04261 17.5248 8.65181 17.5248 9.40064C17.5248 10.1495 16.9156 10.7587 16.1668 10.7587C15.8798 10.7587 15.6057 10.6701 15.3744 10.5027C15.1803 10.3621 14.9235 10.3422 14.71 10.4513C14.4965 10.5603 14.3621 10.7798 14.3621 11.0196V14.3618H11.0199C10.7803 14.3618 10.5609 14.4961 10.4517 14.7094C10.3427 14.9227 10.3623 15.1792 10.5025 15.3735C10.6698 15.6054 10.7583 15.8796 10.7583 16.1665C10.7583 16.9154 10.1491 17.5246 9.40027 17.5246C8.65174 17.5246 8.04289 16.9154 8.04289 16.1665C8.04289 15.8795 8.13136 15.6053 8.29865 15.3735C8.43886 15.1792 8.45849 14.9227 8.34939 14.7094C8.24029 14.496 8.02085 14.3618 7.78121 14.3618H4.43907V11.9904ZM14.7097 21.651C14.4964 21.7601 14.3621 21.9796 14.3621 22.2192V25.5614H11.0199C10.7803 25.5614 10.5609 25.6957 10.4517 25.9089C10.3426 26.1222 10.3623 26.3787 10.5025 26.5731C10.6699 26.805 10.7583 27.0792 10.7583 27.3662C10.7583 28.1147 10.1491 28.7236 9.40027 28.7236C8.65174 28.7236 8.04289 28.1146 8.04289 27.3662C8.04289 27.0791 8.13136 26.8049 8.29865 26.5731C8.43886 26.3788 8.45849 26.1223 8.34939 25.9089C8.24029 25.6956 8.02085 25.5614 7.78121 25.5614H4.43907V22.2192C4.43907 21.9796 4.30477 21.7602 4.09149 21.651C3.87804 21.5418 3.62163 21.5615 3.42739 21.7017C3.19553 21.8691 2.92131 21.9575 2.63432 21.9575C1.88549 21.9575 1.27629 21.3483 1.27629 20.5995C1.27629 19.8506 1.88549 19.2414 2.63432 19.2414C2.92067 19.2414 3.19489 19.3301 3.42739 19.4979C3.62163 19.6381 3.87809 19.6577 4.09149 19.5486C4.30483 19.4395 4.43907 19.22 4.43907 18.9804V15.6383H6.81939C6.78435 15.8106 6.76654 15.9874 6.76654 16.1666C6.76654 17.6192 7.94808 18.801 9.40027 18.801C10.8529 18.801 12.0347 17.6192 12.0347 16.1666C12.0347 15.9874 12.0168 15.8106 11.9818 15.6383H14.3621V18.9804C14.3621 19.22 14.4964 19.4394 14.7096 19.5486C14.923 19.6577 15.1794 19.638 15.3737 19.4979C15.6062 19.3301 15.8804 19.2414 16.1669 19.2414C16.9157 19.2414 17.5249 19.8506 17.5249 20.5995C17.5249 21.3483 16.9157 21.9575 16.1669 21.9575C15.8799 21.9575 15.6056 21.869 15.3737 21.7017C15.1795 21.5615 14.923 21.5418 14.7097 21.651ZM27.3656 21.9575C27.0786 21.9575 26.8044 21.8691 26.5726 21.7018C26.3783 21.5616 26.1218 21.5419 25.9085 21.6511C25.6951 21.7601 25.5609 21.9796 25.5609 22.2193V25.5614H22.2188C21.9791 25.5614 21.7598 25.6957 21.6506 25.909C21.5415 26.1223 21.5611 26.3788 21.7014 26.5732C21.8691 26.8056 21.9578 27.0798 21.9578 27.3662C21.9578 28.1148 21.3486 28.7236 20.5998 28.7236C19.851 28.7236 19.2418 28.1146 19.2418 27.3662C19.2418 27.0792 19.3302 26.805 19.4976 26.5732C19.6378 26.3789 19.6574 26.1223 19.5483 25.909C19.4392 25.6957 19.2198 25.5614 18.9801 25.5614H15.6386V23.1812C15.811 23.2162 15.9878 23.234 16.167 23.234C17.6196 23.234 18.8014 22.0522 18.8014 20.5996C18.8014 19.147 17.6196 17.9652 16.167 17.9652C15.9878 17.9652 15.811 17.9831 15.6386 18.0183V15.6384H18.0183C17.9832 15.8108 17.9654 15.9875 17.9654 16.1668C17.9654 17.6194 19.1472 18.8012 20.5998 18.8012C22.0523 18.8012 23.2342 17.6194 23.2342 16.1668C23.2342 15.9876 23.2163 15.8108 23.1812 15.6384H25.561V18.9806C25.561 19.2202 25.6953 19.4396 25.9086 19.5487C26.122 19.6578 26.3784 19.6383 26.5727 19.4981C26.8052 19.3303 27.0793 19.2416 27.3657 19.2416C28.1146 19.2416 28.7238 19.8508 28.7238 20.5996C28.7238 21.3485 28.1145 21.9575 27.3656 21.9575Z" fill="#218AFE"/>
<path d="M24.1909 21.4392C23.8385 21.4392 23.5527 21.7249 23.5527 22.0774V23.9709C23.5527 24.3233 23.8385 24.6091 24.1909 24.6091C24.5433 24.6091 24.8291 24.3234 24.8291 23.9709V22.0774C24.8291 21.7249 24.5433 21.4392 24.1909 21.4392Z" fill="#218AFE"/>
<path d="M24.1909 18.7589C23.8385 18.7589 23.5527 19.0446 23.5527 19.3971V19.6683C23.5527 20.0208 23.8385 20.3066 24.1909 20.3066C24.5433 20.3066 24.8291 20.0208 24.8291 19.6683V19.3971C24.8291 19.0446 24.5433 18.7589 24.1909 18.7589Z" fill="#218AFE"/>
</g>
<defs>
<clipPath id="clip0_119_303">
<rect width="30" height="30" fill="white"/>
</clipPath>
</defs>
</svg>
