<svg width="24" height="25" viewBox="0 0 24 25" fill="none" xmlns="http://www.w3.org/2000/svg">
<path d="M16.3124 10.9375L19.3244 18.75H18.2579L15.2459 10.9375H16.3124ZM8.62492 11.8656C8.21092 11.8656 7.83592 11.9297 7.49992 12.0609C7.1722 12.1856 6.8758 12.3859 6.63292 12.6469C6.38992 12.9062 6.20242 13.225 6.07042 13.6C5.93061 14.0149 5.86305 14.4525 5.87092 14.8922C5.87092 15.3406 5.93092 15.7469 6.04642 16.1125C6.16342 16.4797 6.34042 16.7891 6.57442 17.0406C6.80842 17.2938 7.09342 17.4937 7.42942 17.6391C7.76542 17.7859 8.14942 17.8547 8.57842 17.8469C9.08867 17.8465 9.59401 17.743 10.0664 17.5422L10.2539 18.2984C10.0185 18.4083 9.77045 18.486 9.51592 18.5297C9.14463 18.5997 8.76824 18.6363 8.39092 18.6391C7.92362 18.6437 7.45929 18.5611 7.01992 18.3953C6.60754 18.2386 6.2292 17.998 5.90692 17.6875C5.57908 17.367 5.32964 16.9695 5.17942 16.5281C5.00656 16.0142 4.91536 15.4743 4.90942 14.9297C4.90942 14.3594 4.99942 13.8391 5.17942 13.3672C5.35942 12.8953 5.60992 12.4875 5.92942 12.1453C6.25042 11.8047 6.63592 11.5391 7.09042 11.3531C7.56873 11.161 8.07781 11.0655 8.59042 11.0719C9.03442 11.0719 9.39442 11.1078 9.66742 11.1813C9.94192 11.2547 10.1399 11.3281 10.2659 11.4L10.0424 12.1703C9.84826 12.073 9.64389 11.9996 9.43342 11.9516C9.16793 11.891 8.89668 11.8622 8.62492 11.8656ZM11.9999 12.5H13.4999V14.0625H11.9999V12.5ZM11.9999 15.625H13.4999V17.1875H11.9999V15.625Z" fill="#59FF00"/>
<path d="M23.25 1.5625H0.75L0 2.34375V22.6562L0.75 23.4375H23.25L24 22.6562V2.34375L23.25 1.5625ZM22.5 21.875H1.5V7.8125H22.5V21.875ZM22.5 6.25H1.5V3.125H22.5V6.25Z" fill="#59FF00"/>
</svg>
