<svg width="32" height="32" viewBox="0 0 32 32" fill="none" xmlns="http://www.w3.org/2000/svg">
<path fill-rule="evenodd" clip-rule="evenodd" d="M10.3516 26.9885L4 31L5.1129 23.9712C2.47286 21.5379 1 18.1578 1 14.4211C1 7.00881 6.79525 1 16 1C25.2047 1 31 7.00881 31 14.4211C31 21.8333 25.2047 27.8421 16 27.8421C13.937 27.8421 12.0452 27.5403 10.3516 26.9885Z" stroke="#59FF00" stroke-width="2" stroke-linecap="round" stroke-linejoin="round"/>
<path d="M9.34839 13.6667C9.71305 13.6708 10.0076 13.968 10.0076 14.3337C10.0074 14.671 9.75558 14.9496 9.43042 14.9929L9.33179 14.9987C8.95784 14.994 8.66692 14.696 8.66675 14.3337C8.66675 13.9958 8.91898 13.7152 9.24487 13.6725L9.34839 13.6667Z" fill="black" stroke="#59FF00" stroke-width="2"/>
<path d="M16.0149 13.6667C16.3796 13.6708 16.6741 13.968 16.6741 14.3337C16.6739 14.671 16.4221 14.9496 16.0969 14.9929L15.9983 14.9987C15.6243 14.994 15.3334 14.696 15.3333 14.3337C15.3333 13.9958 15.5855 13.7152 15.9114 13.6725L16.0149 13.6667Z" fill="black" stroke="#59FF00" stroke-width="2"/>
<path d="M22.6816 13.6667C23.0463 13.6708 23.3408 13.968 23.3408 14.3337C23.3407 14.671 23.0888 14.9496 22.7637 14.9929L22.665 14.9987C22.2911 14.994 22.0002 14.696 22 14.3337C22 13.9958 22.2522 13.7152 22.5781 13.6725L22.6816 13.6667Z" fill="black" stroke="#59FF00" stroke-width="2"/>
</svg>
