<svg width="25" height="25" viewBox="0 0 25 25" fill="none" xmlns="http://www.w3.org/2000/svg">
<path d="M2.85645 15.6869V20.0448C2.89307 22.3324 6.65771 24.183 12.5 24.183C18.3423 24.183 22.1045 22.3324 22.1436 20.0448V15.6869H2.85645Z" fill="#59FF00"/>
<path d="M22.1436 14.8364C22.1436 17.2632 18.3643 19.231 12.5 19.231C6.63574 19.231 2.85645 17.2632 2.85645 14.8364C2.85645 12.4097 6.63574 10.4419 12.5 10.4419C18.3643 10.4419 22.1436 12.4072 22.1436 14.8364Z" fill="#044188"/>
<path d="M2.85645 9.62564V13.4953C2.89307 15.7829 6.65771 17.8776 12.5 17.8776C18.3423 17.8776 22.1045 15.7829 22.1436 13.4953V9.62564H2.85645Z" fill="#59FF00"/>
<path d="M22.1436 10.4419C22.1436 12.8687 18.3643 14.8364 12.5 14.8364C6.63574 14.8364 2.85645 12.8687 2.85645 10.4419C2.85645 8.01514 6.63574 6.04736 12.5 6.04736C18.3643 6.04736 22.1436 8.0127 22.1436 10.4419Z" fill="#044188"/>
<path d="M2.85645 5.23111V9.10074C2.89307 11.3883 6.65771 13.4831 12.5 13.4831C18.3423 13.4831 22.1045 11.3883 22.1436 9.10074V5.23111H2.85645Z" fill="#59FF00"/>
<path d="M22.1436 6.04736C22.1436 8.47412 18.3643 10.4419 12.5 10.4419C6.63574 10.4419 2.85645 8.47412 2.85645 6.04736C2.85645 3.62061 6.63574 1.65283 12.5 1.65283C18.3643 1.65283 22.1436 3.61816 22.1436 6.04736Z" fill="#59FF00"/>
</svg>
