<svg width="23" height="22" viewBox="0 0 23 22" fill="none" xmlns="http://www.w3.org/2000/svg">
<path d="M21.2408 0H1.35804C0.609069 0 0 0.652869 0 1.45535V20.5447C0 21.3472 0.609069 22 1.35804 22H21.2408C21.9896 22 22.5986 21.3472 22.5986 20.5447V1.45535C22.5988 0.65293 21.9895 0 21.2408 0ZM17.1461 2.44383C17.1461 2.14706 17.3706 1.90643 17.6475 1.90643H18.149C18.426 1.90643 18.6504 2.147 18.6504 2.44383V3.05285C18.6504 3.34962 18.4259 3.59019 18.149 3.59019H17.6475C17.3706 3.59019 17.1461 3.34962 17.1461 3.05285V2.44383ZM14.8143 2.44383C14.8143 2.14706 15.0389 1.90643 15.3158 1.90643H15.8172C16.0941 1.90643 16.3187 2.147 16.3187 2.44383V3.05285C16.3187 3.34962 16.0941 3.59019 15.8172 3.59019H15.3158C15.0389 3.59019 14.8143 3.34962 14.8143 3.05285V2.44383ZM20.969 20.2536H1.62968V5.20442H20.969V20.2536ZM20.9822 3.05285C20.9822 3.34962 20.7577 3.59019 20.4808 3.59019H19.9793C19.7022 3.59019 19.4779 3.34962 19.4779 3.05285V2.44383C19.4779 2.14706 19.7024 1.90643 19.9793 1.90643H20.4808C20.7577 1.90643 20.9822 2.147 20.9822 2.44383V3.05285Z" fill="#59FF00"/>
<path d="M4.85098 13.2965L8.48603 15.108C8.58002 15.1546 8.68005 15.1783 8.78348 15.1783C8.9182 15.1783 9.04952 15.1373 9.16367 15.0595C9.36806 14.9195 9.49016 14.6809 9.49016 14.4213V14.4015C9.49016 14.108 9.32968 13.8386 9.08127 13.7149L6.80778 12.583L9.08127 11.4509C9.32968 11.3271 9.49016 11.0577 9.49016 10.7644V10.7447C9.49016 10.4847 9.36806 10.2461 9.16367 10.1066C9.05068 10.0292 8.91901 9.98828 8.78308 9.98828C8.68057 9.98828 8.57777 10.0124 8.48575 10.0582L4.85093 11.8695C4.60275 11.9933 4.44238 12.2628 4.44238 12.556V12.6101C4.44233 12.9029 4.60257 13.1723 4.85098 13.2965Z" fill="#59FF00"/>
<path d="M9.52278 16.9861C9.65536 17.1806 9.86862 17.2967 10.0932 17.2967H10.1114C10.4198 17.2967 10.69 17.0852 10.784 16.7708L13.1785 8.81998C13.2472 8.59052 13.2091 8.33723 13.0765 8.14241C12.9439 7.94791 12.7306 7.83182 12.5059 7.83182H12.4878C12.1793 7.83182 11.9088 8.04331 11.8148 8.35767L9.42009 16.3091C9.35193 16.5389 9.3903 16.7918 9.52278 16.9861Z" fill="#59FF00"/>
<path d="M13.1084 10.7643C13.1084 11.0573 13.2688 11.3268 13.5172 11.4512L15.7907 12.583L13.5172 13.7148C13.2689 13.8386 13.1084 14.108 13.1084 14.4013V14.4212C13.1084 14.6809 13.2304 14.9194 13.435 15.0595C13.5487 15.1371 13.6801 15.1783 13.815 15.1783C13.9183 15.1783 14.0183 15.1546 14.1129 15.1077L17.7477 13.2963C17.9959 13.1723 18.1563 12.9029 18.1563 12.61V12.5559C18.1563 12.2627 17.9959 11.9931 17.7475 11.8694L14.1127 10.0581C14.021 10.0124 13.9183 9.98828 13.8158 9.98828C13.6801 9.98828 13.5483 10.0291 13.4353 10.1063C13.2307 10.2461 13.1086 10.4847 13.1086 10.7446V10.7643H13.1084V10.7643Z" fill="#59FF00"/>
</svg>
