<svg width="24" height="23" viewBox="0 0 24 23" fill="none" xmlns="http://www.w3.org/2000/svg">
<path d="M19.6912 0H3.93467C1.76506 0 0 1.71831 0 3.83044V19.1695C0 21.2817 1.76506 23 3.93467 23H19.6911C21.8608 23 23.6259 21.2817 23.6259 19.1696V3.83044C23.6259 1.71831 21.8608 0 19.6912 0ZM7.58685 11.7808C7.77092 11.96 7.8753 12.2044 7.8753 12.4584V14.3702C8.38524 14.4105 8.81936 14.8264 8.81936 15.3295C8.81936 15.8585 8.41971 16.2917 7.8753 16.2917C6.71565 16.2917 5.90646 15.5039 5.90646 14.375V12.8551L5.21047 12.1775C4.82558 11.8028 4.82558 11.1971 5.21047 10.8224L5.90646 10.1449V8.625C5.90646 7.49607 6.71565 6.70832 7.8753 6.70832C8.41966 6.70832 8.85969 7.13764 8.85969 7.66664C8.85969 8.19371 8.42358 8.62114 7.88314 8.62496L7.87525 10.5416C7.87525 10.7956 7.77092 11.04 7.5868 11.2192L7.2984 11.5L7.58685 11.7808ZM13.7522 7.89956L11.7834 15.5662C11.6712 16.0013 11.2705 16.2916 10.8295 16.2916C10.7507 16.2916 10.67 16.283 10.5903 16.2629C10.0626 16.1345 9.74073 15.6141 9.87362 15.1004L11.8425 7.43376C11.9734 6.92107 12.506 6.60671 13.0356 6.73707C13.5632 6.8655 13.8841 7.38587 13.7522 7.89956ZM18.4154 12.1776L17.7194 12.8551V14.375C17.7194 15.5039 16.9102 16.2917 15.7506 16.2917C15.2062 16.2917 14.7662 15.8624 14.7662 15.3334C14.7662 14.8063 15.2023 14.3789 15.7427 14.375L15.7506 12.4584C15.7506 12.2044 15.854 11.96 16.039 11.7808L16.3275 11.5L16.039 11.2192C15.854 11.04 15.7506 10.7956 15.7506 10.5416V8.62976C15.2407 8.58951 14.8065 8.17358 14.8065 7.67046C14.8065 7.14146 15.2062 6.70827 15.7506 6.70827C16.9102 6.70832 17.7194 7.49607 17.7194 8.625V10.1449L18.4154 10.8225C18.8003 11.1972 18.8003 11.8028 18.4154 12.1776Z" fill="#59FF00"/>
</svg>
