<svg width="23" height="23" viewBox="0 0 23 23" fill="none" xmlns="http://www.w3.org/2000/svg">
<path d="M21.3571 0H1.64273C1.38353 0 1.17334 0.210189 1.17334 0.469389V22.5306C1.17334 22.7898 1.38353 23 1.64273 23H21.357C21.6162 23 21.8264 22.7898 21.8264 22.5306V0.469389C21.8264 0.210189 21.6162 0 21.3571 0ZM20.8877 22.0612H2.11212V0.938777H20.8877V22.0612Z" fill="#59FF00"/>
<path d="M3.52017 21.1225H19.4793C19.7385 21.1225 19.9487 20.9123 19.9487 20.6531V2.34695C19.9487 2.08775 19.7385 1.87756 19.4793 1.87756H3.52017C3.26097 1.87756 3.05078 2.08775 3.05078 2.34695V20.6531C3.05078 20.9123 3.26097 21.1225 3.52017 21.1225ZM3.98956 2.81634H19.01V20.1837H3.98956V2.81634Z" fill="#59FF00"/>
<path d="M16.0551 3.7551H14.0158C13.7566 3.7551 13.5464 3.96529 13.5464 4.22448V5.3173H7.7039C7.50782 4.68368 6.91651 4.22201 6.21928 4.22201H5.39761C5.13841 4.22201 4.92822 4.4322 4.92822 4.6914V6.88188C4.92822 7.14108 5.13841 7.35127 5.39761 7.35127H6.21928C6.91651 7.35127 7.50786 6.88965 7.7039 6.25603H13.5465V7.3488C13.5465 7.608 13.7567 7.81819 14.0159 7.81819H16.0551C17.1668 7.81819 18.0711 6.91382 18.0711 5.80223V5.77101C18.0711 4.65946 17.1667 3.7551 16.0551 3.7551ZM6.83421 5.79769H6.83417C6.83417 6.13676 6.5583 6.41258 6.21923 6.41258H5.867V5.16088H6.21928C6.55835 5.16088 6.83421 5.43675 6.83421 5.77582V5.79769ZM17.1323 5.80228C17.1323 6.39623 16.6491 6.87946 16.0551 6.87946H14.4853V6.25608H15.3458C15.605 6.25608 15.8152 6.04589 15.8152 5.78669C15.8152 5.52749 15.605 5.3173 15.3458 5.3173H14.4853V4.69387H16.0551C16.6491 4.69387 17.1323 5.1771 17.1323 5.77105V5.80228Z" fill="#59FF00"/>
<path d="M16.3862 9.35162C16.3862 9.09242 16.176 8.88223 15.9168 8.88223H5.39761C5.13841 8.88223 4.92822 9.09242 4.92822 9.35162C4.92822 9.61082 5.13841 9.82101 5.39761 9.82101H13.6955C14.0231 9.82101 14.2896 10.0875 14.2896 10.4151V10.4365C14.2896 10.7641 14.0231 11.0306 13.6955 11.0306H12.858C12.5988 11.0306 12.3886 11.2408 12.3886 11.5C12.3886 11.7592 12.5988 11.9694 12.858 11.9694H13.6955C14.5407 11.9694 15.2284 11.2817 15.2284 10.4365V10.4151C15.2284 10.2046 15.1856 10.0038 15.1085 9.82106H15.9168C16.1761 9.82101 16.3862 9.61087 16.3862 9.35162Z" fill="#59FF00"/>
<path d="M17.6017 8.88223H17.5832C17.324 8.88223 17.1138 9.09242 17.1138 9.35162C17.1138 9.61082 17.324 9.82101 17.5832 9.82101H17.6017C17.8609 9.82101 18.0711 9.61082 18.0711 9.35162C18.0711 9.09242 17.8609 8.88223 17.6017 8.88223Z" fill="#59FF00"/>
<path d="M14.5445 12.1914H14.5037C13.1304 12.1914 12.0132 13.3087 12.0132 14.6819V14.7261C12.0132 14.7308 12.0138 14.7353 12.0139 14.74C12.014 14.7443 12.0137 14.7485 12.014 14.7528L12.2451 18.8022C12.2593 19.0506 12.4649 19.2448 12.7137 19.2448H16.3344C16.5833 19.2448 16.7889 19.0506 16.803 18.8022L17.0341 14.7528C17.0344 14.7485 17.0341 14.7443 17.0342 14.74C17.0343 14.7353 17.0349 14.7308 17.0349 14.7261V14.6819C17.035 13.3087 15.9177 12.1914 14.5445 12.1914ZM14.5037 13.1302H14.5445C15.2527 13.1302 15.8517 13.6071 16.037 14.2567H13.0112C13.1965 13.6072 13.7954 13.1302 14.5037 13.1302ZM15.8911 18.3061H13.1571L12.9795 15.1955H16.0687L15.8911 18.3061Z" fill="#59FF00"/>
<path d="M10.1017 14.7857H6.88152C6.72174 14.7857 6.57296 14.867 6.48657 15.0014C6.40019 15.1359 6.38819 15.305 6.45463 15.4503L8.06468 18.9707C8.14104 19.1377 8.30788 19.2448 8.49152 19.2448C8.67516 19.2448 8.842 19.1377 8.91837 18.9707L10.5285 15.4503C10.5949 15.305 10.5829 15.1358 10.4965 15.0014C10.4103 14.867 10.2614 14.7857 10.1017 14.7857ZM8.49157 17.647L7.61236 15.7245H9.37087L8.49157 17.647Z" fill="#59FF00"/>
<path d="M10.9804 10.619H5.39761C5.13841 10.619 4.92822 10.8291 4.92822 11.0883V13.4353C4.92822 13.6945 5.13841 13.9047 5.39761 13.9047H10.9804C11.2396 13.9047 11.4498 13.6945 11.4498 13.4353V11.0883C11.4498 10.8291 11.2397 10.619 10.9804 10.619ZM10.511 12.9659H5.867V11.5577H10.511V12.9659Z" fill="#59FF00"/>
</svg>
