<svg width="30" height="30" viewBox="0 0 30 30" fill="none" xmlns="http://www.w3.org/2000/svg">
<g clip-path="url(#clip0_119_313)">
<path d="M15.0001 0C9.5913 0 5.19092 4.47849 5.19092 9.98324C5.19092 13.4418 6.94486 16.6346 9.80558 18.4534V25.1445C9.80558 26.5393 10.8856 27.6858 12.2531 27.7935C12.5316 29.054 13.657 30.0001 15 30.0001C16.343 30.0001 17.4685 29.054 17.7469 27.7935C19.1145 27.6858 20.1945 26.5393 20.1945 25.1445V18.4534C23.0552 16.6346 24.8091 13.4418 24.8091 9.98318C24.8091 4.47849 20.4088 0 15.0001 0ZM15.0001 28.0277C14.7796 28.0277 14.5794 27.9418 14.4293 27.8026H15.571C15.4207 27.9418 15.2204 28.0277 15.0001 28.0277ZM17.5363 25.8304H12.4637C12.0855 25.8304 11.7778 25.5227 11.7778 25.1445V24.543H18.2221V25.1445H18.2221C18.2222 25.5226 17.9145 25.8304 17.5363 25.8304ZM18.2222 22.5707H11.7779V21.4314H18.2222V22.5707ZM18.7301 17.0304C18.4167 17.2043 18.2221 17.5344 18.2221 17.8929V19.4593H15.9861V12.7527H19.5931C19.5951 12.7527 19.597 12.7525 19.599 12.7524C19.603 12.7524 19.6068 12.7527 19.6108 12.7527C20.8795 12.7527 21.9117 11.7205 21.9117 10.4518C21.9117 9.18303 20.8795 8.15078 19.6108 8.15078C18.342 8.15078 17.3098 9.18303 17.3098 10.4518C17.3098 10.5634 17.3182 10.6731 17.3336 10.7805H12.6839C12.6994 10.6731 12.7078 10.5634 12.7078 10.4518C12.7078 9.18297 11.6755 8.15078 10.4068 8.15078C9.13808 8.15078 8.10583 9.18303 8.10583 10.4518C8.10583 11.7205 9.13808 12.7527 10.4068 12.7527H14.0138V19.4592H11.7778V17.8928C11.7778 17.5344 11.5833 17.2041 11.2698 17.0303C8.73665 15.6259 7.16312 12.9255 7.16312 9.98312C7.16312 5.56598 10.6787 1.97226 15 1.97226C19.3212 1.97226 22.8369 5.56598 22.8369 9.98324C22.8369 12.9256 21.2633 15.626 18.7301 17.0304ZM19.282 10.4518C19.282 10.2705 19.4295 10.123 19.6108 10.123C19.792 10.123 19.9395 10.2705 19.9395 10.4518C19.9395 10.633 19.792 10.7805 19.6108 10.7805C19.4295 10.7805 19.282 10.633 19.282 10.4518ZM10.7356 10.4518C10.7356 10.633 10.5881 10.7805 10.4069 10.7805C10.2256 10.7805 10.0782 10.633 10.0782 10.4518C10.0782 10.2705 10.2256 10.123 10.4069 10.123C10.5881 10.123 10.7356 10.2705 10.7356 10.4518Z" fill="#FF8000"/>
</g>
<defs>
<clipPath id="clip0_119_313">
<rect width="30" height="30" fill="white"/>
</clipPath>
</defs>
</svg>
