<svg width="23" height="23" viewBox="0 0 23 23" fill="none" xmlns="http://www.w3.org/2000/svg">
<path fill-rule="evenodd" clip-rule="evenodd" d="M9.52934 1.19791H9.58341C9.98036 1.19791 10.3022 1.51971 10.3022 1.91666C10.3022 2.31361 9.98036 2.63541 9.58341 2.63541C7.75604 2.63541 6.45782 2.63693 5.47298 2.76934C4.50881 2.89897 3.95331 3.14207 3.54774 3.54764C3.14216 3.95322 2.89906 4.50872 2.76943 5.47289C2.63702 6.45773 2.6355 7.75595 2.6355 9.58332C2.6355 9.98026 2.3137 10.3021 1.91675 10.3021C1.5198 10.3021 1.198 9.98026 1.198 9.58332V9.52925C1.19798 7.76807 1.19797 6.37309 1.34476 5.28135C1.49581 4.15778 1.81409 3.24837 2.53127 2.53118C3.24846 1.814 4.15787 1.49572 5.28144 1.34467C6.37318 1.19788 7.76816 1.19789 9.52934 1.19791ZM17.5272 2.76934C16.5423 2.63693 15.2441 2.63541 13.4167 2.63541C13.0198 2.63541 12.698 2.31361 12.698 1.91666C12.698 1.51971 13.0198 1.19791 13.4167 1.19791H13.4708C15.232 1.19789 16.627 1.19788 17.7187 1.34467C18.8423 1.49572 19.7517 1.814 20.4689 2.53118C21.1861 3.24837 21.5043 4.15778 21.6554 5.28135C21.8022 6.37309 21.8022 7.76808 21.8022 9.52926V9.58332C21.8022 9.98026 21.4804 10.3021 21.0834 10.3021C20.6865 10.3021 20.3647 9.98026 20.3647 9.58332C20.3647 7.75595 20.3631 6.45773 20.2307 5.47289C20.1011 4.50872 19.858 3.95322 19.4524 3.54764C19.0469 3.14207 18.4913 2.89897 17.5272 2.76934ZM9.1017 6.01825C8.89975 5.9911 8.618 5.98957 8.14591 5.98957C7.44795 5.98957 6.99679 5.9911 6.66436 6.03579C6.3526 6.07771 6.25489 6.14538 6.20018 6.20009C6.14547 6.2548 6.0778 6.35251 6.03588 6.66427C5.99119 6.9967 5.98966 7.44786 5.98966 8.14582C5.98966 8.61791 5.99119 8.89966 6.01834 9.10161C6.03079 9.19413 6.04544 9.24049 6.05403 9.26136C6.05601 9.26619 6.05756 9.26937 6.05853 9.27122L6.05985 9.27355L6.06218 9.27487C6.06403 9.27584 6.06721 9.27739 6.07205 9.27938C6.09292 9.28796 6.13927 9.30262 6.2318 9.31507C6.43375 9.34222 6.7155 9.34374 7.18758 9.34374H8.14591C8.618 9.34374 8.89975 9.34222 9.1017 9.31507C9.19422 9.30262 9.24058 9.28796 9.26145 9.27938C9.26628 9.27739 9.26946 9.27584 9.27131 9.27487L9.27364 9.27355L9.27496 9.27122C9.27593 9.26937 9.27748 9.26619 9.27947 9.26136C9.28806 9.24049 9.30271 9.19413 9.31516 9.10161C9.34231 8.89966 9.34383 8.61791 9.34383 8.14582V7.18749C9.34383 6.7154 9.34231 6.43365 9.31516 6.23171C9.30271 6.13918 9.28806 6.09283 9.27947 6.07196L9.27778 6.06799C9.27659 6.06531 9.27496 6.06209 9.27496 6.06209L9.27364 6.05976L9.27131 6.05844C9.26946 6.05747 9.26628 6.05592 9.26145 6.05393C9.24058 6.04535 9.19422 6.03069 9.1017 6.01825ZM9.29324 4.59357C9.63392 4.63937 9.99396 4.74713 10.2901 5.04328C10.5863 5.33943 10.694 5.6995 10.7398 6.04016C10.7814 6.34953 10.7814 6.72983 10.7813 7.14461C10.7813 7.15886 10.7813 7.17315 10.7813 7.18749V8.14582C10.7813 8.16016 10.7813 8.17445 10.7813 8.1887C10.7814 8.60348 10.7814 8.98379 10.7398 9.29315C10.694 9.63383 10.5863 9.99387 10.2901 10.29C9.99396 10.5862 9.63392 10.6939 9.29324 10.7397C8.98388 10.7813 8.60358 10.7813 8.18879 10.7812C8.17454 10.7812 8.16025 10.7812 8.14591 10.7812H7.18758C7.17324 10.7812 7.15896 10.7812 7.1447 10.7812C6.72992 10.7813 6.34962 10.7813 6.04026 10.7397C5.69959 10.6939 5.33952 10.5862 5.04337 10.29C4.74722 9.99387 4.63946 9.63383 4.59366 9.29315C4.55207 8.98379 4.55212 8.60349 4.55216 8.18871C4.55216 8.17446 4.55216 8.16016 4.55216 8.14582V8.0985C4.55213 7.46134 4.5521 6.91235 4.61121 6.47273C4.67455 6.00157 4.81739 5.54995 5.18372 5.18362C5.55004 4.8173 6.00166 4.67446 6.47282 4.61112C6.91244 4.55201 7.46143 4.55203 8.09859 4.55207H8.14591C8.16025 4.55207 8.17455 4.55207 8.1888 4.55207C8.60359 4.55203 8.98388 4.55198 9.29324 4.59357ZM14.8114 4.55207H14.9016C15.5387 4.55203 16.0877 4.55201 16.5273 4.61112C16.9985 4.67446 17.4501 4.8173 17.8165 5.18362C18.1827 5.54995 18.3256 6.00157 18.389 6.47273C18.4481 6.91235 18.448 7.46135 18.448 8.09851V8.18871C18.4481 8.60348 18.4481 8.98379 18.4065 9.29315C18.3607 9.63383 18.253 9.99387 17.9568 10.29C17.6606 10.5862 17.3006 10.6939 16.9599 10.7397C16.6505 10.7813 16.2703 10.7813 15.8554 10.7812H14.8114C14.3965 10.7813 14.0163 10.7813 13.7069 10.7397C13.3662 10.6939 13.0062 10.5862 12.7101 10.29C12.4139 9.99387 12.3061 9.63383 12.2603 9.29315C12.2187 8.98379 12.2187 8.60348 12.2188 8.1887V7.14461C12.2187 6.72983 12.2187 6.34953 12.2603 6.04016C12.3061 5.6995 12.4139 5.33943 12.7101 5.04328C13.0062 4.74713 13.3662 4.63937 13.7069 4.59357C14.0163 4.55198 14.3965 4.55203 14.8114 4.55207ZM13.7289 6.05844L13.7265 6.05976L13.7252 6.06209C13.7243 6.06394 13.7226 6.06712 13.7207 6.07196C13.7121 6.09283 13.6974 6.13918 13.685 6.23171C13.6579 6.43365 13.6563 6.7154 13.6563 7.18749V8.14582C13.6563 8.61791 13.6579 8.89966 13.685 9.10161C13.6974 9.19413 13.7121 9.24049 13.7207 9.26136C13.7226 9.26619 13.7243 9.26937 13.7252 9.27122L13.7265 9.27355L13.7289 9.27487C13.7307 9.27584 13.7339 9.27739 13.7387 9.27938C13.7595 9.28796 13.8059 9.30262 13.8985 9.31507C14.1004 9.34222 14.3822 9.34374 14.8542 9.34374H15.8126C16.2847 9.34374 16.5664 9.34222 16.7683 9.31507C16.8609 9.30262 16.9073 9.28796 16.9281 9.27938C16.933 9.27739 16.9361 9.27584 16.9379 9.27487L16.9403 9.27355L16.9416 9.27122C16.9426 9.26937 16.9442 9.26619 16.9461 9.26136C16.9547 9.24049 16.9694 9.19414 16.9818 9.10161C17.009 8.89966 17.0105 8.61791 17.0105 8.14582C17.0105 7.44786 17.009 6.9967 16.9643 6.66427C16.9223 6.35251 16.8547 6.2548 16.7999 6.20009C16.7452 6.14538 16.6476 6.07771 16.3358 6.03579C16.0034 5.9911 15.5522 5.98957 14.8542 5.98957C14.3822 5.98957 14.1004 5.9911 13.8985 6.01825C13.8059 6.03069 13.7595 6.04535 13.7387 6.05393L13.7342 6.05585C13.7318 6.05693 13.7289 6.05844 13.7289 6.05844ZM7.1447 12.2187H8.18879C8.60358 12.2186 8.98388 12.2186 9.29324 12.2602C9.63392 12.306 9.99396 12.4138 10.2901 12.71C10.5863 13.0061 10.694 13.3662 10.7398 13.7068C10.7814 14.0162 10.7814 14.3965 10.7813 14.8113V15.8553C10.7814 16.2702 10.7814 16.6505 10.7398 16.9598C10.694 17.3005 10.5863 17.6605 10.2901 17.9567C9.99396 18.2529 9.63392 18.3606 9.29324 18.4064C8.98388 18.448 8.60358 18.448 8.1888 18.4479H8.0986C7.46144 18.4479 6.91244 18.448 6.47282 18.3889C6.00166 18.3255 5.55004 18.1826 5.18372 17.8164C4.81739 17.45 4.67455 16.9984 4.61121 16.5272C4.5521 16.0876 4.55213 15.5386 4.55216 14.9015V14.8113C4.55212 14.3965 4.55207 14.0162 4.59366 13.7068C4.63946 13.3662 4.74722 13.0061 5.04337 12.71C5.33952 12.4138 5.69959 12.306 6.04026 12.2602C6.34962 12.2186 6.72992 12.2186 7.1447 12.2187ZM6.06218 13.7251L6.05985 13.7264L6.05853 13.7288C6.05756 13.7306 6.05601 13.7338 6.05403 13.7387C6.04544 13.7595 6.03079 13.8058 6.01834 13.8984C5.99119 14.1003 5.98966 14.3821 5.98966 14.8542C5.98966 15.5521 5.99119 16.0033 6.03588 16.3357C6.0778 16.6475 6.14547 16.7451 6.20018 16.7999C6.25489 16.8546 6.3526 16.9222 6.66436 16.9642C6.99679 17.0089 7.44795 17.0104 8.14591 17.0104C8.618 17.0104 8.89975 17.0089 9.1017 16.9818C9.19423 16.9693 9.24058 16.9546 9.26145 16.946C9.26628 16.9441 9.26946 16.9425 9.27131 16.9415L9.27364 16.9403L9.27496 16.9379C9.27593 16.936 9.27748 16.9329 9.27947 16.928C9.28806 16.9072 9.30271 16.8608 9.31516 16.7682C9.34231 16.5663 9.34383 16.2846 9.34383 15.8125V14.8542C9.34383 14.3821 9.34231 14.1003 9.31516 13.8984C9.30271 13.8058 9.28806 13.7595 9.27947 13.7387C9.27748 13.7338 9.27593 13.7306 9.27496 13.7288L9.27364 13.7264L9.27131 13.7251C9.26946 13.7242 9.26628 13.7226 9.26145 13.7206C9.24058 13.712 9.19422 13.6974 9.1017 13.6849C8.89975 13.6578 8.618 13.6562 8.14591 13.6562H7.18758C6.7155 13.6562 6.43375 13.6578 6.2318 13.6849C6.13927 13.6974 6.09292 13.712 6.07205 13.7206C6.06721 13.7226 6.06403 13.7242 6.06218 13.7251ZM14.8114 12.2187H15.8554C16.2703 12.2186 16.6505 12.2186 16.9599 12.2602C17.3006 12.306 17.6606 12.4138 17.9568 12.71C18.253 13.0061 18.3607 13.3662 18.4065 13.7068C18.4481 14.0162 18.4481 14.3965 18.448 14.8113V14.9015C18.448 15.5386 18.4481 16.0876 18.389 16.5272C18.3256 16.9984 18.1827 17.45 17.8165 17.8164C17.4501 18.1826 16.9985 18.3255 16.5273 18.3889C16.0877 18.448 15.5387 18.4479 14.9016 18.4479H14.8114C14.3965 18.448 14.0163 18.448 13.7069 18.4064C13.3662 18.3606 13.0062 18.2529 12.7101 17.9567C12.4139 17.6605 12.3061 17.3005 12.2603 16.9598C12.2187 16.6505 12.2187 16.2702 12.2188 15.8553V14.8113C12.2187 14.3965 12.2187 14.0162 12.2603 13.7068C12.3061 13.3662 12.4139 13.0061 12.7101 12.71C13.0062 12.4138 13.3662 12.306 13.7069 12.2602C14.0163 12.2186 14.3965 12.2186 14.8114 12.2187ZM13.7289 13.7251L13.7267 13.7263L13.7252 13.7288L13.7233 13.7326C13.7233 13.7326 13.7217 13.7363 13.7207 13.7387C13.7121 13.7595 13.6974 13.8058 13.685 13.8984C13.6579 14.1003 13.6563 14.3821 13.6563 14.8542V15.8125C13.6563 16.2846 13.6579 16.5663 13.685 16.7682C13.6974 16.8608 13.7121 16.9072 13.7207 16.928C13.7218 16.9306 13.7235 16.9344 13.7235 16.9344L13.7252 16.9379L13.7265 16.9403L13.7289 16.9415C13.7307 16.9425 13.7339 16.9441 13.7387 16.946C13.7595 16.9546 13.8059 16.9693 13.8985 16.9818C14.1004 17.0089 14.3822 17.0104 14.8542 17.0104C15.5522 17.0104 16.0034 17.0089 16.3358 16.9642C16.6476 16.9222 16.7452 16.8546 16.7999 16.7999C16.8547 16.7451 16.9223 16.6475 16.9643 16.3357C17.009 16.0033 17.0105 15.5521 17.0105 14.8542C17.0105 14.3821 17.009 14.1003 16.9818 13.8984C16.9694 13.8058 16.9547 13.7595 16.9461 13.7387C16.9442 13.7338 16.9426 13.7306 16.9416 13.7288L16.9403 13.7264L16.9379 13.7251C16.9361 13.7242 16.933 13.7226 16.9281 13.7206C16.9073 13.712 16.8609 13.6974 16.7683 13.6849C16.5664 13.6578 16.2847 13.6562 15.8126 13.6562H14.8542C14.3822 13.6562 14.1004 13.6578 13.8985 13.6849C13.8059 13.6974 13.7595 13.712 13.7387 13.7206C13.7339 13.7226 13.7307 13.7242 13.7289 13.7251ZM1.91675 12.6979C2.3137 12.6979 2.6355 13.0197 2.6355 13.4167C2.6355 15.244 2.63702 16.5423 2.76943 17.5271C2.89906 18.4912 3.14216 19.0468 3.54774 19.4523C3.95331 19.8579 4.50881 20.101 5.47298 20.2306C6.45782 20.363 7.75604 20.3646 9.58341 20.3646C9.98036 20.3646 10.3022 20.6864 10.3022 21.0833C10.3022 21.4803 9.98036 21.8021 9.58341 21.8021H9.52935C7.76817 21.8021 6.37318 21.8021 5.28144 21.6553C4.15787 21.5042 3.24846 21.186 2.53127 20.4688C1.81409 19.7516 1.49581 18.8422 1.34476 17.7186C1.19797 16.6269 1.19798 15.2319 1.198 13.4707V13.4167C1.198 13.0197 1.5198 12.6979 1.91675 12.6979ZM21.0834 12.6979C21.4804 12.6979 21.8022 13.0197 21.8022 13.4167V13.4707C21.8022 15.2319 21.8022 16.6269 21.6554 17.7186C21.5043 18.8422 21.1861 19.7516 20.4689 20.4688C19.7517 21.186 18.8423 21.5042 17.7187 21.6553C16.627 21.8021 15.232 21.8021 13.4708 21.8021H13.4167C13.0198 21.8021 12.698 21.4803 12.698 21.0833C12.698 20.6864 13.0198 20.3646 13.4167 20.3646C15.2441 20.3646 16.5423 20.363 17.5272 20.2306C18.4913 20.101 19.0469 19.8579 19.4524 19.4523C19.858 19.0468 20.1011 18.4912 20.2307 17.5271C20.3631 16.5423 20.3647 15.244 20.3647 13.4167C20.3647 13.0197 20.6865 12.6979 21.0834 12.6979Z" fill="#59FF00"/>
</svg>
