<svg width="25" height="25" viewBox="0 0 25 25" fill="none" xmlns="http://www.w3.org/2000/svg">
<path d="M22.9172 12.6039C22.9172 14.6642 22.3063 16.6783 21.1616 18.3914C20.017 20.1045 18.39 21.4396 16.4866 22.2281C14.5831 23.0165 12.4886 23.2228 10.4678 22.8209C8.44712 22.4189 6.59097 21.4268 5.13411 19.9699C3.67725 18.5131 2.68512 16.6569 2.28317 14.6362C1.88123 12.6155 2.08752 10.521 2.87597 8.61748C3.66441 6.714 4.9996 5.08707 6.71268 3.94243C8.42577 2.79778 10.4398 2.18683 12.5001 2.18683C13.8681 2.18683 15.2227 2.45628 16.4866 2.97978C17.7504 3.50329 18.8988 4.27061 19.8661 5.23793C20.8334 6.20525 21.6008 7.35362 22.1243 8.61748C22.6478 9.88134 22.9172 11.2359 22.9172 12.6039ZM17.8764 9.5842C17.938 9.55416 17.993 9.51229 18.0383 9.46098C18.0837 9.40967 18.1185 9.34992 18.1407 9.28515C18.163 9.22039 18.1722 9.15187 18.168 9.08352C18.1637 9.01517 18.146 8.94834 18.1159 8.88683C17.6086 7.84426 16.8183 6.96541 15.8353 6.35069C14.8523 5.73597 13.7161 5.41017 12.5567 5.41051C12.5227 5.41074 12.4887 5.41426 12.4554 5.42104C12.1637 5.42355 11.876 5.48959 11.6124 5.61457C11.3488 5.73955 11.1156 5.92046 10.9291 6.14472H10.9277L10.9212 6.15393C10.876 6.20912 10.8339 6.26665 10.7949 6.3263C10.6825 6.45183 10.5432 6.55023 10.3873 6.61409C10.2314 6.67794 10.0631 6.70559 9.89499 6.69495C9.72688 6.68431 9.56338 6.63566 9.41681 6.55265C9.27023 6.46965 9.1444 6.35447 9.0488 6.21578C9.00999 6.09832 8.93066 5.99851 8.825 5.93419C8.71934 5.86987 8.59424 5.84524 8.47208 5.8647C8.34992 5.88417 8.23867 5.94645 8.15823 6.04043C8.07779 6.1344 8.0334 6.25392 8.03301 6.37762V8.48946C8.03263 8.61206 8.07549 8.73087 8.15406 8.82499C8.23262 8.91912 8.34186 8.98252 8.46256 9.00405C8.58326 9.02558 8.70768 9.00386 8.81395 8.94271C8.92021 8.88156 9.00151 8.7849 9.04354 8.66972C9.14 8.52673 9.26836 8.40811 9.41851 8.32323C9.56865 8.23834 9.73647 8.1895 9.90872 8.18057C10.081 8.17164 10.2529 8.20285 10.4111 8.27176C10.5692 8.34066 10.7091 8.44537 10.8199 8.57762C10.8444 8.61446 10.8707 8.64955 10.8988 8.68288C11.0171 8.86447 11.0798 9.07668 11.0791 9.29341V9.66709H14.258V8.66183C14.258 8.3666 14.3753 8.08346 14.584 7.87471C14.7928 7.66595 15.0759 7.54867 15.3712 7.54867C15.5488 7.54817 15.724 7.5906 15.8817 7.67236C16.4256 8.13349 16.8678 8.70251 17.1804 9.34341C17.2231 9.43133 17.2896 9.50546 17.3725 9.55735C17.4553 9.60924 17.5511 9.63678 17.6488 9.63683C17.7277 9.63707 17.8056 9.61906 17.8764 9.5842ZM13.8133 10.8276C13.8126 10.7173 13.7684 10.6118 13.6903 10.5339C13.6122 10.456 13.5065 10.4122 13.3962 10.4118H11.7606C11.6504 10.4122 11.5447 10.456 11.4666 10.5339C11.3884 10.6118 11.3442 10.7173 11.3435 10.8276V19.6263C11.3439 19.7368 11.3879 19.8427 11.4661 19.9209C11.5442 19.999 11.6501 20.0431 11.7606 20.0434H13.3962C13.5067 20.0431 13.6126 19.999 13.6907 19.9209C13.7689 19.8427 13.8129 19.7368 13.8133 19.6263V10.8276Z" fill="#59FF00"/>
</svg>
