<svg width="38" height="46" viewBox="0 0 38 46" fill="none" xmlns="http://www.w3.org/2000/svg">
<g clip-path="url(#clip0_48_11)">
<path d="M26.5607 32.5524L21.3364 31.8274L19 27.3062L16.6636 31.8274L11.4393 32.5524L15.2196 36.0717L14.3272 41.0409L19 38.6948L23.6728 41.0409L22.7804 36.0717L26.5607 32.5524Z" fill="#F4EE58" stroke="white" stroke-width="0.5"/>
<path d="M38 29.3454L33.4769 28.7177L31.4543 24.8035L29.4314 28.7177L24.9084 29.3454L28.1813 32.3923L27.4087 36.6945L31.4543 34.6633L35.4998 36.6945L34.7271 32.3923L38 29.3454Z" fill="#F4EE58" stroke="white" stroke-width="0.5"/>
<path d="M13.0916 29.3454L8.56855 28.7177L6.54572 24.8035L4.52304 28.7177L0 29.3454L3.2729 32.3923L2.50028 36.6945L6.54572 34.6633L10.5913 36.6945L9.8187 32.3923L13.0916 29.3454Z" fill="#F4EE58" stroke="#FFEB55" stroke-width="0.5"/>
<path d="M22.897 17.7145C23.5314 16.9244 23.9096 15.9375 23.9096 14.8672C23.9096 12.2817 21.7071 10.1784 19 10.1784C16.2929 10.1784 14.0904 12.2817 14.0904 14.8672C14.0904 15.9375 14.4687 16.9244 15.1031 17.7145C13.1386 18.4123 11.7351 20.221 11.7351 22.3373V26.5323H26.265V22.3373C26.265 20.221 24.8615 18.4124 22.897 17.7145Z" fill="white" stroke="white" stroke-width="0.5"/>
<path d="M20.1251 4.8421H17.8748V8.3875H20.1251V4.8421Z" fill="white" stroke="white" stroke-width="0.5"/>
<path d="M12.3727 7.0184L10.7814 8.53809L13.4064 11.045L14.9977 9.52535L12.3727 7.0184Z" fill="white" stroke="white" stroke-width="0.5"/>
<path d="M12.215 13.7924H8.50262V15.9416H12.215V13.7924Z" fill="white" stroke="white" stroke-width="0.5"/>
<path d="M29.4971 13.7924H25.7848V15.9416H29.4971V13.7924Z" fill="white" stroke="white" stroke-width="0.5"/>
<path d="M25.6265 7.01893L23.0015 9.52588L24.5928 11.0456L27.2178 8.53861L25.6265 7.01893Z" fill="white" stroke="white" stroke-width="0.5"/>
</g>
<defs>
<clipPath id="clip0_48_11">
<rect width="38" height="46" fill="white"/>
</clipPath>
</defs>
</svg>
