<svg width="36" height="36" viewBox="0 0 36 36" fill="none" xmlns="http://www.w3.org/2000/svg">
<path fill-rule="evenodd" clip-rule="evenodd" d="M0 14.4C0 7.61177 2.38419e-07 4.21767 2.10883 2.10883C4.21767 2.38419e-07 7.61177 0 14.4 0H21.6C28.3882 0 31.7824 2.38419e-07 33.8911 2.10883C36 4.21767 36 7.61177 36 14.4V21.6C36 28.3882 36 31.7824 33.8911 33.8911C31.7824 36 28.3882 36 21.6 36H14.4C7.61177 36 4.21767 36 2.10883 33.8911C2.38419e-07 31.7824 0 28.3882 0 21.6V14.4ZM10.3296 26.0037C12.5301 24.3153 15.2264 23.4 18 23.4C20.7736 23.4 23.4698 24.3153 25.6703 26.0037C27.8708 27.6923 29.4529 30.0596 30.1707 32.7389C30.4279 33.6991 29.858 34.6862 28.8979 34.9434C27.9376 35.2008 26.9507 34.6309 26.6933 33.6706C26.1806 31.7569 25.0506 30.0659 23.4788 28.8598C21.9071 27.6538 19.9813 27 18 27C16.0187 27 14.093 27.6538 12.5211 28.8598C10.9493 30.0659 9.81945 31.7569 9.30667 33.6706C9.04937 34.6309 8.06236 35.2008 7.10213 34.9434C6.14189 34.6862 5.57204 33.6991 5.82934 32.7389C6.54721 30.0596 8.12909 27.6923 10.3296 26.0037ZM14.4 12.6C14.4 10.6118 16.0117 9 18 9C19.9883 9 21.6 10.6118 21.6 12.6C21.6 14.5883 19.9883 16.2 18 16.2C16.0117 16.2 14.4 14.5883 14.4 12.6ZM18 5.4C14.0235 5.4 10.8 8.62355 10.8 12.6C10.8 16.5764 14.0235 19.8 18 19.8C21.9764 19.8 25.2 16.5764 25.2 12.6C25.2 8.62355 21.9764 5.4 18 5.4Z" fill="white"/>
</svg>
