<svg width="24" height="25" viewBox="0 0 24 25" fill="none" xmlns="http://www.w3.org/2000/svg">
<g clip-path="url(#clip0_38_43)">
<path fill-rule="evenodd" clip-rule="evenodd" d="M11.9992 0.260406C5.37299 0.260406 0 5.7687 0 12.5651C0 18.0003 3.43799 22.612 8.20724 24.2392C8.80725 24.3522 9.02625 23.9723 9.02625 23.6463C9.02625 23.3541 9.01573 22.5805 9.00974 21.5539C5.67148 22.2975 4.96725 19.9044 4.96725 19.9044C4.422 18.4833 3.63525 18.1049 3.63525 18.1049C2.5455 17.3413 3.71774 17.3567 3.71774 17.3567C4.92149 17.4436 5.55524 18.6248 5.55524 18.6248C6.62624 20.5049 8.364 19.962 9.048 19.6467C9.15675 18.8516 9.46725 18.3095 9.81 18.0019C7.14525 17.6912 4.34399 16.6361 4.34399 11.9214C4.34399 10.578 4.81125 9.47987 5.57925 8.61937C5.4555 8.30793 5.04376 7.05755 5.69626 5.36346C5.69626 5.36346 6.70425 5.03278 8.99625 6.62459C9.954 6.3516 10.98 6.21549 12.0008 6.21011C13.02 6.21549 14.0467 6.3516 15.0052 6.62459C17.2957 5.03278 18.3015 5.36346 18.3015 5.36346C18.9563 7.05755 18.5445 8.30793 18.4207 8.61937C19.1902 9.47987 19.6545 10.578 19.6545 11.9214C19.6545 16.6477 16.8488 17.6881 14.1758 17.9926C14.6063 18.3725 14.9903 19.1231 14.9903 20.2712C14.9903 21.9161 14.9753 23.2425 14.9753 23.6463C14.9753 23.9754 15.1913 24.3584 15.8003 24.2376C20.565 22.6074 24 17.9988 24 12.5651C24 5.7687 18.627 0.260406 11.9992 0.260406Z" fill="white"/>
</g>
<defs>
<clipPath id="clip0_38_43">
<rect width="24" height="25" fill="white"/>
</clipPath>
</defs>
</svg>
