<svg width="26" height="26" viewBox="0 0 26 26" fill="none" xmlns="http://www.w3.org/2000/svg">
<path d="M18.4167 11.765L22.75 8.04916V20.5833H18.4167V11.765ZM7.58333 11.765L3.25 8.04916V20.5833H7.58333V11.765Z" fill="white"/>
<path d="M18.1667 11.3451L22.5 7.62923V20.1634H18.1667V11.3451ZM7.33334 11.3451L3.00001 7.62923V20.1634H7.33334V11.3451ZM18.1667 5.63589L12.75 10.2834L7.33334 5.63589C6.95261 5.30772 6.48557 5.09591 5.98784 5.0257C5.49012 4.95549 4.98271 5.02985 4.52606 5.23991C4.06941 5.44997 3.68277 5.78688 3.4122 6.21049C3.14164 6.63411 2.99856 7.12658 3.00001 7.62923L7.33334 11.3451L12.75 15.9817L18.1667 11.3451L22.5 7.62923C22.5015 7.12658 22.3584 6.63411 22.0878 6.21049C21.8173 5.78688 21.4306 5.44997 20.974 5.23991C20.5173 5.02985 20.0099 4.95549 19.5122 5.0257C19.0145 5.09591 18.5474 5.30772 18.1667 5.63589Z" fill="white"/>
</svg>
