<svg width="25" height="25" viewBox="0 0 25 25" fill="none" xmlns="http://www.w3.org/2000/svg">
<path d="M12.5 0C13.8385 0 22.6562 5.08958 23.325 6.25C23.9969 7.41146 23.9969 17.5885 23.325 18.75C22.6531 19.9115 13.8406 25 12.5 25C11.1594 25 2.34374 19.9115 1.67186 18.75C1.00415 17.5885 1.00415 7.41146 1.67186 6.25C2.34374 5.08958 11.1614 0 12.5 0ZM14.8906 7.08229C14.7437 7.08229 14.6219 7.20208 14.6219 7.35104V11.3875H10.3781V7.19583H11.1083C11.2552 7.19583 11.3729 7.07604 11.3729 6.92708C11.3729 6.82917 11.3219 6.74375 11.2448 6.69687L9.60728 5.125C9.55624 5.05937 9.4604 5.01146 9.37186 5.01146C9.28436 5.01146 9.2052 5.05833 9.15624 5.12292L7.40624 6.69792C7.33124 6.74479 7.28124 6.82917 7.28124 6.925C7.28124 7.07396 7.39895 7.19375 7.54686 7.19375H8.2802L8.28853 17.6469C8.28853 17.7979 8.40415 17.9156 8.55311 17.9156H10.1073C10.2552 17.9156 10.3771 17.7958 10.3771 17.649V13.4781H14.6198V17.8031H13.8917C13.7427 17.8031 13.625 17.9229 13.625 18.0719C13.625 18.1677 13.675 18.2531 13.7489 18.3L15.3937 19.8729C15.4396 19.9365 15.5406 19.9865 15.6281 19.9865C15.7167 19.9865 15.7937 19.9396 15.8448 19.8729L17.5937 18.3C17.6687 18.2531 17.7187 18.1677 17.7187 18.0719C17.7187 17.9229 17.5989 17.8031 17.4531 17.8031H16.7198L16.7125 7.35104C16.7125 7.2 16.5937 7.08021 16.4469 7.08021H14.8906V7.08229Z" fill="white"/>
</svg>
