<svg width="25" height="25" viewBox="0 0 25 25" fill="none" xmlns="http://www.w3.org/2000/svg">
<path d="M19.1896 19.1895H16.3744V14.78C16.3744 13.7287 16.3554 12.3749 14.9098 12.3749C13.4437 12.3749 13.2188 13.5212 13.2188 14.7024V19.1895H10.4037V10.1218H13.1064V11.3616H13.1444C13.6954 10.4211 14.7214 9.85741 15.8108 9.897C18.6639 9.897 19.1912 11.7732 19.1912 14.2163L19.1896 19.188V19.1895ZM7.2275 8.88209C6.79505 8.88001 6.38088 8.7074 6.07494 8.40176C5.769 8.09612 5.596 7.68212 5.5935 7.24967C5.5935 6.35351 6.33133 5.61568 7.2275 5.61568C8.12367 5.61568 8.85992 6.35351 8.8615 7.24967C8.8615 8.14584 8.12367 8.88209 7.2275 8.88209ZM8.63508 19.1895H5.81675V10.1218H8.63508V19.1895ZM20.5908 3.00002H4.40125C4.03416 2.99789 3.68105 3.14072 3.41867 3.39746C3.15629 3.65421 3.00583 4.00413 3 4.37119V20.6288C3.00583 20.9958 3.15629 21.3458 3.41867 21.6025C3.68105 21.8593 4.03416 22.0021 4.40125 22H20.5924C20.9604 22.0029 21.3146 21.8606 21.5782 21.6038C21.8417 21.3471 21.9933 20.9967 22 20.6288V4.3696C21.9933 4.002 21.8416 3.65192 21.578 3.39568C21.3143 3.13943 20.9601 2.99779 20.5924 3.00161L20.5908 3.00002Z" fill="white"/>
</svg>
