<svg width="30" height="30" viewBox="0 0 30 30" fill="none" xmlns="http://www.w3.org/2000/svg">
<path d="M15 30C23.2843 30 30 23.2843 30 15C30 6.71573 23.2843 0 15 0C6.71573 0 0 6.71573 0 15C0 23.2843 6.71573 30 15 30Z" fill="#4F5D73"/>
<path d="M22.3593 19.0312C22.4531 18.8437 22.6406 18.75 22.8281 18.7031C23.0156 18.6562 23.25 18.6562 23.4843 18.75L24.6562 19.3125C24.8906 19.4062 25.0312 19.5937 25.0781 19.8281C25.1718 20.0625 25.125 20.3437 24.9843 20.5781C24.8437 20.8125 24.6093 21 24.4218 21.0468C24.1875 21.0937 23.9531 21.0468 23.7656 20.9062L22.6875 20.1562C22.5 20.0156 22.3593 19.8281 22.3125 19.6406C22.2656 19.4062 22.2656 19.2187 22.3593 19.0312Z" fill="#E0E0D1"/>
<path d="M7.6875 19.125C7.92188 19.4531 7.73438 19.9687 7.35938 20.25L6.28125 21C5.85938 21.2812 5.34375 21.1406 5.01563 20.6719C4.73438 20.2031 4.92188 19.5937 5.34375 19.4062L6.51563 18.8437C7.03125 18.6562 7.5 18.7969 7.6875 19.125Z" fill="#E0E0D1"/>
<path d="M6.5625 14.9062C6.5625 15.3281 6.23437 15.6562 5.71875 15.7031L4.40625 15.8437C3.9375 15.8906 3.46875 15.4687 3.46875 14.9062C3.46875 14.3437 3.89062 13.9218 4.35937 13.9687L5.67187 14.0625C6.1875 14.1562 6.5625 14.4843 6.5625 14.9062Z" fill="#E0E0D1"/>
<path d="M7.64057 10.6406C7.54682 10.8281 7.35932 10.9219 7.17182 10.9688C6.98432 11.0156 6.74995 11.0156 6.51557 10.9219L5.3437 10.3594C5.10932 10.2656 4.9687 10.0781 4.92182 9.84375C4.82807 9.60938 4.87495 9.32812 5.01557 9.09375C5.1562 8.85937 5.39057 8.67187 5.57807 8.625C5.81245 8.57812 6.04682 8.625 6.23432 8.76563L7.31245 9.51562C7.49995 9.65625 7.64057 9.84375 7.68745 10.0312C7.7812 10.2656 7.7812 10.5 7.64057 10.6406Z" fill="#E0E0D1"/>
<path d="M10.7344 7.54694C10.4063 7.78132 9.89064 7.59382 9.60939 7.21882L8.85939 6.14069C8.57814 5.71882 8.71877 5.20319 9.18752 4.87507C9.65627 4.59382 10.2656 4.78132 10.4531 5.20319L11.0156 6.37507C11.2031 6.84382 11.0625 7.31257 10.7344 7.54694Z" fill="#E0E0D1"/>
<path d="M14.9532 6.375C14.5313 6.375 14.2032 6.04688 14.1563 5.53125L14.0157 4.21875C13.9688 3.75 14.3907 3.28125 14.9532 3.28125C15.5157 3.28125 15.9376 3.70312 15.8907 4.17187L15.797 5.48438C15.7032 6 15.3751 6.375 14.9532 6.375Z" fill="#E0E0D1"/>
<path d="M19.2187 7.49995C19.0312 7.4062 18.9375 7.2187 18.8906 7.0312C18.8437 6.8437 18.8437 6.60932 18.9375 6.37495L19.5 5.20307C19.5937 4.9687 19.7812 4.82807 20.0156 4.7812C20.25 4.68745 20.5312 4.73432 20.7656 4.87495C21 5.01557 21.1875 5.24995 21.2343 5.43745C21.2812 5.67182 21.2343 5.9062 21.0937 6.0937L20.3437 7.17182C20.2031 7.35932 20.0156 7.49995 19.8281 7.54682C19.5937 7.5937 19.3593 7.5937 19.2187 7.49995Z" fill="#E0E0D1"/>
<path d="M22.3125 10.5469C22.0781 10.2188 22.2656 9.70314 22.6406 9.42189L23.7187 8.67189C24.1406 8.39064 24.6562 8.53127 24.9844 9.00002C25.2656 9.46877 25.0781 10.0781 24.6562 10.2656L23.4375 10.8281C23.0156 11.0625 22.5 10.9219 22.3125 10.5469Z" fill="#E0E0D1"/>
<path d="M23.4844 14.7656C23.4844 14.3438 23.8125 14.0156 24.3281 13.9688L25.6406 13.8281C26.1094 13.7813 26.5781 14.2031 26.5781 14.7656C26.5781 15.3281 26.1563 15.75 25.6875 15.7031L24.375 15.6094C23.8594 15.5625 23.4844 15.1875 23.4844 14.7656Z" fill="#E0E0D1"/>
<g opacity="0.2">
<path d="M19.5 11.4374C19.3125 11.2499 18.9844 11.203 18.7969 11.3437L16.5938 12.703L15.1406 13.5937C15.0937 13.5937 15.0469 13.5937 15 13.5937C13.6875 13.5937 12.6562 14.6249 12.6562 15.9374C12.6562 15.9843 12.6562 16.0312 12.6562 16.078C12.75 17.2499 13.6406 18.1874 14.8125 18.2343C14.8594 18.2343 14.9062 18.2343 14.9531 18.2343C16.2656 18.2343 17.2969 17.203 17.2969 15.8905C17.2969 15.8437 17.2969 15.7968 17.2969 15.7499L18.1875 14.2968L19.5469 12.0937C19.7344 11.9062 19.6875 11.6249 19.5 11.4374Z" fill="#231F20"/>
</g>
<path d="M19.5 10.4999C19.3125 10.3124 18.9844 10.2655 18.7969 10.4062L16.5938 11.7655L15.1406 12.6562C15.0937 12.6562 15.0469 12.6562 15 12.6562C13.6875 12.6562 12.6562 13.6874 12.6562 14.9999C12.6562 15.0468 12.6562 15.0937 12.6562 15.1405C12.75 16.3124 13.6406 17.2499 14.8125 17.2968C14.8594 17.2968 14.9062 17.2968 14.9531 17.2968C16.2656 17.2968 17.2969 16.2655 17.2969 14.953C17.2969 14.9062 17.2969 14.8593 17.2969 14.8124L18.1875 13.3593L19.5469 11.1562C19.7344 10.9687 19.6875 10.6874 19.5 10.4999Z" fill="#C75C5C"/>
<path d="M15 17.3438C16.2944 17.3438 17.3438 16.2944 17.3438 15C17.3438 13.7056 16.2944 12.6562 15 12.6562C13.7056 12.6562 12.6562 13.7056 12.6562 15C12.6562 16.2944 13.7056 17.3438 15 17.3438Z" fill="white"/>
<path d="M18.75 22.9688C18.75 23.7656 18.1406 24.375 17.3438 24.375H12.6562C11.8594 24.375 11.25 23.7656 11.25 22.9688V22.0312C11.25 21.2344 11.8594 20.625 12.6562 20.625H17.3438C18.1406 20.625 18.75 21.2344 18.75 22.0312V22.9688Z" fill="#F5CF87"/>
</svg>
