<svg width="35" height="35" viewBox="0 0 35 35" fill="none" xmlns="http://www.w3.org/2000/svg">
<path d="M14.8066 27.918C14.3213 27.918 13.9248 27.5215 13.9248 27.0361C13.9248 26.5508 14.3213 26.1543 14.8066 26.1543C15.292 26.1543 15.6885 26.5508 15.6885 27.0361C15.6919 27.5215 15.292 27.918 14.8066 27.918Z" fill="#005BFF"/>
<path d="M20.5249 25.1802C20.5249 25.3545 20.3813 25.498 20.207 25.498H9.40625C9.23193 25.498 9.08838 25.3545 9.08838 25.1802V8.90039C9.08838 8.72607 9.23193 8.58252 9.40625 8.58252H20.2036C20.3779 8.58252 20.5215 8.72607 20.5215 8.90039V25.1802H20.5249Z" fill="#E6E6E6"/>
<path d="M10.3154 12.1064C9.85059 12.1064 9.47119 12.4858 9.47119 12.9507C9.47119 13.4155 9.85059 13.7949 10.3154 13.7949C10.7803 13.7949 11.1597 13.4155 11.1597 12.9507C11.1597 12.4858 10.7803 12.1064 10.3154 12.1064ZM27.4805 19.749C26.4756 19.749 25.6553 20.5693 25.6553 21.5742C25.6553 22.5791 26.4756 23.3994 27.4805 23.3994C28.4854 23.3994 29.3057 22.5791 29.3057 21.5742C29.3057 20.5693 28.4854 19.749 27.4805 19.749Z" fill="white"/>
<path d="M27.4805 19.0654C26.0962 19.0654 24.9717 20.1899 24.9717 21.5742C24.9717 22.9585 26.0962 24.083 27.4805 24.083C28.8647 24.083 29.9893 22.9585 29.9893 21.5742C29.9893 20.1899 28.8647 19.0654 27.4805 19.0654ZM25.6553 21.5742C25.6553 20.5693 26.4756 19.749 27.4805 19.749C28.4854 19.749 29.3057 20.5693 29.3057 21.5742C29.3057 22.5791 28.4854 23.3994 27.4805 23.3994C26.4722 23.3994 25.6553 22.5791 25.6553 21.5742Z" fill="#005BFF"/>
<path d="M12.4995 18.6621C12.1099 18.6621 11.7954 18.9766 11.7954 19.3662C11.7954 19.7559 12.1099 20.0703 12.4995 20.0703C12.8892 20.0703 13.2036 19.7559 13.2036 19.3662C13.2036 18.9766 12.8857 18.6621 12.4995 18.6621ZM4.38525 14.3999C3.92041 14.3999 3.54102 14.7793 3.54102 15.2441C3.54102 15.709 3.92041 16.0884 4.38525 16.0884C4.8501 16.0884 5.22949 15.709 5.22949 15.2441C5.22949 14.7793 4.8501 14.3999 4.38525 14.3999Z" fill="white"/>
<path d="M6.54199 14.1709C6.48047 13.9932 6.28906 13.8975 6.10791 13.9556L5.46875 14.1709C5.19189 13.8906 4.80908 13.7163 4.38184 13.7163C3.54102 13.7163 2.854 14.3999 2.854 15.2441C2.854 16.0884 3.5376 16.772 4.38184 16.772C5.22607 16.772 5.90967 16.0884 5.90967 15.2441C5.90967 15.0801 5.88232 14.9194 5.83447 14.7725L6.32666 14.6084C6.50439 14.5435 6.6001 14.3521 6.54199 14.1709ZM4.38525 16.085C3.92041 16.085 3.54102 15.7056 3.54102 15.2407C3.54102 14.7759 3.92041 14.3965 4.38525 14.3965C4.8501 14.3965 5.22949 14.7759 5.22949 15.2407C5.22949 15.7056 4.8501 16.085 4.38525 16.085ZM11.2588 14.6084L11.1392 14.2324C11.5596 13.959 11.8398 13.4873 11.8398 12.9507C11.8398 12.1099 11.1562 11.4229 10.312 11.4229C9.46777 11.4229 8.78418 12.1064 8.78418 12.9507C8.78418 13.7949 9.46777 14.4785 10.312 14.4785C10.3735 14.4785 10.4351 14.4751 10.4932 14.4683L10.6025 14.8169C10.647 14.9639 10.7837 15.0562 10.9272 15.0562C10.9614 15.0562 10.9956 15.0493 11.0298 15.0391C11.2178 14.981 11.3169 14.7861 11.2588 14.6084ZM10.6265 13.7334C10.6128 13.7368 10.5991 13.7437 10.5889 13.7471C10.5034 13.7778 10.4111 13.7949 10.3154 13.7949C9.85059 13.7949 9.47119 13.4155 9.47119 12.9507C9.47119 12.4858 9.85059 12.1064 10.3154 12.1064C10.7803 12.1064 11.1597 12.4858 11.1597 12.9507C11.1597 13.3027 10.9375 13.6069 10.6265 13.7334ZM11.5527 17.0078C11.5869 17.0078 11.6211 17.001 11.6553 16.9907C11.8364 16.9326 11.9355 16.7412 11.8774 16.5635L11.6724 15.9106C11.6143 15.7295 11.4229 15.6304 11.2451 15.6885C11.064 15.7466 10.9648 15.938 11.0229 16.1157L11.228 16.7686C11.2725 16.9155 11.4058 17.0078 11.5527 17.0078ZM14.9707 17.2676L14.6973 17.4761C14.5469 17.5889 14.5161 17.8042 14.6323 17.9546C14.7007 18.0435 14.8032 18.0879 14.9058 18.0879C14.9775 18.0879 15.0493 18.064 15.1108 18.0195L15.3843 17.811C15.5347 17.6982 15.5654 17.4829 15.4492 17.3325C15.3364 17.1821 15.1211 17.1548 14.9707 17.2676ZM18.1699 15.2646C18.0571 15.1143 17.8418 15.0835 17.6914 15.1997L17.418 15.4082C17.2676 15.521 17.2368 15.7363 17.353 15.8867C17.4214 15.9756 17.5239 16.02 17.6265 16.02C17.6982 16.02 17.77 15.9961 17.8315 15.9517L18.105 15.7432C18.2554 15.6304 18.2861 15.415 18.1699 15.2646ZM16.3311 16.2319L16.0576 16.4404C15.9072 16.5532 15.8765 16.7686 15.9927 16.9189C16.061 17.0078 16.1636 17.0522 16.2661 17.0522C16.3379 17.0522 16.4097 17.0283 16.4712 16.9839L16.7446 16.7754C16.895 16.6626 16.9258 16.4473 16.8096 16.2969C16.6968 16.1499 16.4814 16.1191 16.3311 16.2319ZM13.6104 18.3032L13.4873 18.3955C13.2344 18.1392 12.8857 17.9785 12.4995 17.9785C12.4414 17.9785 12.3867 17.9819 12.332 17.9888L12.2944 17.8657C12.2363 17.6846 12.0449 17.5854 11.8638 17.6436C11.6826 17.7017 11.5835 17.8931 11.6416 18.0742L11.6929 18.2417C11.3408 18.4946 11.1118 18.9048 11.1118 19.3696C11.1118 20.1353 11.7339 20.7573 12.4995 20.7573C13.2651 20.7573 13.8872 20.1353 13.8872 19.3696C13.8872 19.2397 13.8701 19.1133 13.8359 18.9937L14.0239 18.8501C14.1743 18.7373 14.2051 18.522 14.0889 18.3716C13.9761 18.2178 13.7607 18.187 13.6104 18.3032ZM11.7954 19.3662C11.7954 18.9766 12.1099 18.6621 12.4995 18.6621C12.8892 18.6621 13.2036 18.9766 13.2036 19.3662C13.2036 19.7559 12.8892 20.0703 12.4995 20.0703C12.1099 20.0703 11.7954 19.7559 11.7954 19.3662Z" fill="#005BFF"/>
<path d="M29.5244 14.1777H22.7944V7.3418C22.7944 5.91309 21.6323 4.75098 20.2036 4.75098H9.40625C7.97754 4.75098 6.81543 5.91309 6.81543 7.3418V27.3506C6.81543 28.7793 7.97754 29.9414 9.40625 29.9414H29.521C30.9497 29.9414 32.1118 28.793 32.1118 27.3813V16.7412C32.1152 15.3262 30.9531 14.1777 29.5244 14.1777ZM20.207 28.5742H9.40625C8.73291 28.5742 8.18262 28.0273 8.18262 27.3506V13.9795L8.26807 13.9521C8.4458 13.8906 8.5415 13.6992 8.4834 13.5181C8.43896 13.3848 8.31592 13.2959 8.18604 13.2856V7.34521C8.18604 6.67187 8.73291 6.12158 9.40967 6.12158H20.207C20.8804 6.12158 21.4307 6.66846 21.4307 7.34521V14.8682C21.3657 14.875 21.2974 14.9023 21.2427 14.9468C21.0991 15.0698 21.082 15.2852 21.2051 15.4287L21.4272 15.6885L21.4307 15.6919V27.354C21.4272 28.0273 20.8804 28.5742 20.207 28.5742ZM30.748 27.3813C30.748 28.041 30.2012 28.5742 29.5244 28.5742H22.4902C22.6851 28.2085 22.7979 27.7949 22.7979 27.3506V17.1069C22.8765 17.1069 22.9551 17.0796 23.0166 17.0249C23.1602 16.9019 23.1772 16.6865 23.0542 16.543L22.832 16.2832C22.8218 16.2695 22.8081 16.2593 22.7944 16.2456V15.5449H29.5244C30.1978 15.5449 30.748 16.0815 30.748 16.7378V27.3813Z" fill="#005BFF"/>
<path d="M25.0503 18.8843C24.9272 18.7407 24.7119 18.7236 24.5684 18.8467C24.4248 18.9697 24.4077 19.1851 24.5308 19.3286L24.7529 19.5884C24.8213 19.667 24.917 19.708 25.0127 19.708C25.0913 19.708 25.1699 19.6807 25.2349 19.626C25.3784 19.5029 25.3955 19.2876 25.2725 19.1441L25.0503 18.8843ZM23.9395 17.5855C23.8164 17.4419 23.6011 17.4248 23.4575 17.5479C23.314 17.6709 23.2969 17.8862 23.4199 18.0298L23.6421 18.2896C23.7104 18.3682 23.8061 18.4092 23.9019 18.4092C23.9805 18.4092 24.0591 18.3818 24.124 18.3272C24.2676 18.2041 24.2847 17.9888 24.1616 17.8452L23.9395 17.5855Z" fill="#005BFF"/>
<path d="M16.8745 7.62207H12.7388C12.5508 7.62207 12.397 7.46826 12.397 7.28027C12.397 7.09229 12.5508 6.93848 12.7388 6.93848H16.8745C17.0625 6.93848 17.2163 7.09229 17.2163 7.28027C17.2163 7.46826 17.0625 7.62207 16.8745 7.62207Z" fill="#06F3FF"/>
<path d="M20.4155 10.9409C19.2671 10.9409 18.334 11.874 18.334 13.0225C18.334 14.1709 19.2671 15.104 20.4155 15.104C21.564 15.104 22.4971 14.1709 22.4971 13.0225C22.4971 11.874 21.564 10.9409 20.4155 10.9409Z" fill="white"/>
<path d="M20.4155 10.2573C18.8911 10.2573 17.6504 11.498 17.6504 13.0225C17.6504 14.5469 18.8911 15.7876 20.4155 15.7876C21.9399 15.7876 23.1807 14.5469 23.1807 13.0225C23.1807 11.498 21.9399 10.2573 20.4155 10.2573ZM18.3374 13.0225C18.3374 11.874 19.2705 10.9409 20.4189 10.9409C21.5674 10.9409 22.5005 11.874 22.5005 13.0225C22.5005 14.1709 21.5674 15.104 20.4189 15.104C19.2705 15.104 18.3374 14.1709 18.3374 13.0225Z" fill="#005BFF"/>
</svg>
