<svg width="31" height="31" viewBox="0 0 31 31" fill="none" xmlns="http://www.w3.org/2000/svg">
<path d="M20.4471 2.89718C19.4223 2.26136 18.2385 1.92838 17.0325 1.93665C15.8265 1.94492 14.6474 2.29413 13.6314 2.94394C11.6608 4.2537 11.198 6.77494 10.8105 9.00565C10.546 10.4209 10.2721 11.8736 9.66187 12.4915C9.34269 12.8005 8.64907 12.7058 7.6275 12.4887C6.43718 12.2714 4.95629 12.0069 3.74569 12.8864C2.80723 13.5789 2.22426 14.8156 1.9779 16.6902C1.75605 18.0176 1.82819 19.3774 2.18924 20.6738C2.55028 21.9702 3.19144 23.1716 4.06746 24.1931C6.19213 26.6805 9.87448 28.1387 14.1213 28.1446C22.9245 28.1569 28.1925 21.9673 28.2008 15.9767C28.2075 11.1299 24.6533 5.16241 20.4471 2.89718Z" fill="#F9A825"/>
<path d="M7.37192 21.0009L7.28755 21.0007C7.04851 20.972 6.8202 20.885 6.62262 20.7474C6.42504 20.6098 6.26422 20.4259 6.15427 20.2117C5.98431 19.944 5.88507 19.6375 5.86579 19.3209C5.84652 19.0043 5.90785 18.6881 6.04404 18.4017C6.18025 18.1153 6.38687 17.8681 6.64458 17.6833C6.9023 17.4985 7.20267 17.382 7.51763 17.3448C7.75193 17.2963 7.99453 17.3052 8.22465 17.3707C8.45476 17.4364 8.66555 17.5568 8.83898 17.7217C9.05335 18.0153 9.17328 18.3672 9.18282 18.7306C9.19236 19.094 9.09107 19.4517 8.8924 19.7561C8.50692 20.5524 7.96254 21.0017 7.37192 21.0009Z" fill="#43A047"/>
<path d="M13.1331 24.2151C12.8412 24.2136 12.5537 24.144 12.2935 24.0118C12.0333 23.8795 11.8074 23.6884 11.6341 23.4536C11.4752 23.2733 11.3631 23.0567 11.3078 22.8227C11.2526 22.5888 11.2558 22.3449 11.3172 22.1126C11.4677 21.7823 11.7155 21.5059 12.0274 21.3204C12.3393 21.1349 12.7004 21.049 13.0624 21.0744C13.4191 20.9986 13.7905 21.0348 14.1258 21.1778C14.4611 21.3209 14.7442 21.5639 14.9363 21.8738C15.0314 22.0947 15.069 22.3359 15.0457 22.5752C15.0225 22.8146 14.939 23.044 14.8032 23.2424C14.6432 23.5085 14.4216 23.7325 14.1571 23.8952C13.8926 24.058 13.5928 24.1549 13.2831 24.1778L13.1331 24.2151Z" fill="#039BE5"/>
<path d="M19.7452 22.2743C19.4496 22.2734 19.158 22.2057 18.8923 22.0762C18.6711 21.9833 18.4756 21.8383 18.3225 21.6537C18.1693 21.4691 18.063 21.2502 18.0125 21.0156C17.9196 20.3968 18.3236 19.7786 19.1305 19.311C19.4174 19.09 19.7646 18.9613 20.1261 18.9417C20.4876 18.9222 20.8466 19.0127 21.1557 19.2013C21.3352 19.3617 21.4731 19.5633 21.5577 19.7887C21.6422 20.0142 21.671 20.2568 21.6414 20.4957C21.6166 20.9765 21.4079 21.4294 21.0584 21.7605C20.7089 22.0916 20.2454 22.2756 19.7639 22.2743L19.7452 22.2743Z" fill="#3949AB"/>
<path d="M18.0182 10.2063C17.6944 10.2476 17.3656 10.193 17.0726 10.0492C16.7794 9.90556 16.535 9.679 16.3693 9.3978C16.2795 9.17488 16.2464 8.9332 16.2729 8.69436C16.2994 8.45552 16.3847 8.22699 16.5212 8.02923C16.6717 7.74489 16.8928 7.50406 17.1634 7.32991C17.4339 7.15575 17.7446 7.05412 18.0657 7.0348C18.3869 7.01547 18.7076 7.0791 18.997 7.21955C19.2865 7.36001 19.5348 7.57257 19.7184 7.8368C19.875 8.01837 19.9849 8.23546 20.0385 8.46918C20.0921 8.70291 20.0877 8.94618 20.0259 9.17786C19.8725 9.50861 19.6208 9.78398 19.3051 9.96645C18.9894 10.1489 18.6251 10.2295 18.262 10.1973L18.0182 10.2063Z" fill="#E53935"/>
<path d="M21.9944 16.0993C21.8834 16.0981 21.773 16.0822 21.6663 16.052C21.0666 15.873 20.7299 15.2444 20.6 14.3255C20.5219 13.9728 20.5531 13.6046 20.6891 13.2699C20.8252 12.9352 21.0599 12.6498 21.3619 12.4516C21.5814 12.3566 21.8208 12.3165 22.0592 12.3348C22.2977 12.3531 22.5281 12.4293 22.7305 12.5566C23.0122 12.7015 23.2525 12.9154 23.4291 13.1784C23.6057 13.4413 23.7128 13.7446 23.7404 14.0601C23.7681 14.3757 23.7153 14.693 23.5871 14.9826C23.459 15.2722 23.2595 15.5247 23.0074 15.7163C22.7252 15.959 22.3666 16.0947 21.9944 16.0993Z" fill="#8E24AA"/>
<path d="M14.0781 18.7695C13.8295 18.7692 13.5911 18.67 13.4156 18.494C13.2401 18.318 13.1416 18.0794 13.1419 17.8307L13.1445 15.9557C13.1466 14.4839 14.272 14.176 15.6878 14.0843L15.4349 13.9152C15.3327 13.8462 15.2451 13.7577 15.1772 13.6548C15.1091 13.5519 15.0621 13.4366 15.0388 13.3156C15.0154 13.1945 15.0162 13.07 15.0411 12.9492C15.0659 12.8285 15.1143 12.7138 15.1836 12.6117C15.3213 12.4064 15.5346 12.2638 15.777 12.2149C16.0193 12.1661 16.2712 12.215 16.4777 12.351C18.7818 13.8917 18.5181 14.7351 18.4239 15.0537C18.3297 15.3723 17.9914 15.9906 16.8945 15.9891C16.2683 15.964 15.6411 15.9915 15.0194 16.0708L15.0169 17.8333C15.0168 17.9564 14.9923 18.0784 14.9451 18.192C14.8978 18.3057 14.8286 18.409 14.7414 18.4959C14.6542 18.5828 14.5508 18.6517 14.437 18.6987C14.3232 18.7456 14.2012 18.7697 14.0781 18.7695Z" fill="#C62828"/>
<path d="M13.6221 2.93454C11.6515 4.2443 11.1792 6.76552 10.8011 8.99624C10.5366 10.4115 10.2721 11.8736 9.65252 12.4821C9.34271 12.7911 8.64909 12.6964 7.62752 12.4793C6.43719 12.262 4.95631 11.9975 3.73633 12.877C2.79787 13.5695 2.22427 14.8062 1.97791 16.6808C1.75675 18.0075 1.82834 19.3665 2.18767 20.6625C2.547 21.9585 3.18539 23.1604 4.0581 24.1837C6.18277 26.6711 9.85573 28.1387 14.0651 28.1445C14.3557 28.1449 14.6276 28.1453 14.9088 28.1457L14.9449 2.27075C14.4803 2.44143 14.0365 2.66411 13.6221 2.93454Z" fill="#FBC02D"/>
<path d="M7.35316 20.9914L7.26878 20.9913C7.03073 20.9595 6.80372 20.8712 6.60661 20.734C6.4095 20.5968 6.248 20.4145 6.13551 20.2023C5.96521 19.9332 5.86624 19.6252 5.84794 19.3073C5.82963 18.9894 5.89258 18.6721 6.03087 18.3852C6.16915 18.0984 6.37821 17.8515 6.63833 17.6679C6.89844 17.4842 7.20106 17.3698 7.51762 17.3354C7.75192 17.2868 7.99452 17.2958 8.22464 17.3613C8.45475 17.427 8.66554 17.5474 8.83897 17.7123C9.05334 18.0059 9.17327 18.3577 9.18281 18.7212C9.19235 19.0846 9.09106 19.4423 8.89239 19.7467C8.77748 20.0771 8.57244 20.3688 8.30043 20.5888C8.02841 20.8087 7.7003 20.9482 7.35316 20.9914Z" fill="#43A047"/>
<path d="M14.9549 22.0052L14.9537 22.849C15.043 22.5749 15.0434 22.2796 14.9549 22.0052Z" fill="#039BE5"/>
<path d="M14.9176 21.8738C14.7225 21.5669 14.4391 21.3262 14.1046 21.1835C13.7701 21.0408 13.4002 21.0028 13.0437 21.0744C12.6759 21.0438 12.3078 21.127 11.9888 21.3127C11.67 21.4984 11.4159 21.7776 11.261 22.1125C11.2044 22.3479 11.2072 22.5937 11.2691 22.8277C11.3309 23.0618 11.4499 23.2769 11.6154 23.4536C11.795 23.6856 12.0249 23.8737 12.2878 24.004C12.5507 24.1343 12.8397 24.2033 13.1331 24.2057L13.2549 24.2059C13.5663 24.1845 13.8679 24.0883 14.1341 23.9254C14.4004 23.7626 14.6234 23.538 14.7844 23.2705C14.8565 23.1467 14.9133 23.0146 14.9537 22.877L14.9548 22.0333C14.9507 21.9785 14.9381 21.9248 14.9176 21.8738Z" fill="#039BE5"/>
<path d="M13.0883 15.9557L13.0857 17.8307C13.0853 18.0793 13.1838 18.3178 13.3594 18.4939C13.5349 18.67 13.7733 18.7691 14.0219 18.7695C14.2705 18.7698 14.5091 18.6713 14.6852 18.4958C14.8612 18.3202 14.9603 18.0819 14.9607 17.8333L14.9658 14.1676C13.8781 14.3161 13.09 14.7275 13.0883 15.9557Z" fill="#F4511E"/>
</svg>
