<svg width="33" height="37" viewBox="0 0 33 37" fill="none" xmlns="http://www.w3.org/2000/svg">
<path d="M10.1 16.3771H23.0814V17.59H10.1V16.3771Z" fill="white"/>
<path d="M10.1 21.2288H23.0814V22.4417H10.1V21.2288Z" fill="white"/>
<path d="M10.1 26.0815H18.7543V27.2945H10.1V26.0815Z" fill="white"/>
<path d="M19.7876 4.24805C19.5298 2.52755 18.1985 1.21521 16.5907 1.21521C14.983 1.21521 13.6517 2.52755 13.3939 4.24805H3.60834V35.7848H29.5711V4.24805H19.7876ZM14.4272 7.0323V4.85393C14.4272 3.51615 15.3976 2.42812 16.5907 2.42812C17.7839 2.42812 18.7543 3.51615 18.7543 4.85393V7.0323L19.3019 7.38149C20.3641 8.05905 21.1788 9.08927 21.6459 10.3126H11.5366C12.0037 9.08927 12.8184 8.05905 13.8806 7.38149L14.4272 7.0323ZM28.4914 34.5719H4.69218V5.46096H13.3464V6.32699C11.6572 7.40462 10.4342 9.29393 10.1011 11.5255H23.0825C22.7504 9.29393 21.5263 7.40577 19.8371 6.32699V5.46096H28.4914V34.5719Z" fill="white"/>
</svg>
