<svg width="40" height="40" viewBox="0 0 40 40" fill="none" xmlns="http://www.w3.org/2000/svg">
<path d="M31.25 36.25H22.5C21.8091 36.25 21.25 35.6909 21.25 35C21.25 34.3091 21.8091 33.75 22.5 33.75H31.25C31.9398 33.75 32.5 33.1898 32.5 32.5V28.75C32.5 28.0591 33.0591 27.5 33.75 27.5C34.4409 27.5 35 28.0591 35 28.75V32.5C35 34.5679 33.3179 36.25 31.25 36.25Z" fill="#96CEE5"/>
<path d="M33.75 20C33.0591 20 32.5 19.4409 32.5 18.75V10C32.5 6.554 29.696 3.75 26.25 3.75H13.75C10.304 3.75 7.5 6.554 7.5 10V18.75C7.5 19.4409 6.94025 20 6.25 20C5.55975 20 5 19.4409 5 18.75V10C5 5.17575 8.92513 1.25 13.75 1.25H26.25C31.0743 1.25 35 5.17575 35 10V18.75C35 19.4409 34.4409 20 33.75 20Z" fill="#4391B2"/>
<path d="M11.25 17.5V30C11.25 30.6875 10.6875 31.25 10 31.25C9.3125 31.25 8.75 30.6875 8.75 30H5C2.9375 30 1.25 28.3125 1.25 26.25V21.25C1.25 19.1875 2.9375 17.5 5 17.5H8.75C8.75 16.8125 9.3125 16.25 10 16.25C10.6875 16.25 11.25 16.8125 11.25 17.5Z" fill="#48B1DD"/>
<path d="M38.75 21.25V26.25C38.75 28.3125 37.0625 30 35 30H31.25C31.25 30.6875 30.6875 31.25 30 31.25C29.3125 31.25 28.75 30.6875 28.75 30V17.5C28.75 16.8125 29.3125 16.25 30 16.25C30.6875 16.25 31.25 16.8125 31.25 17.5H35C37.0625 17.5 38.75 19.1875 38.75 21.25Z" fill="#48B1DD"/>
<path d="M23.75 35C23.75 37.0625 22.0625 38.75 20 38.75C17.9375 38.75 16.25 37.0625 16.25 35C16.25 32.9375 17.9375 31.25 20 31.25C22.0625 31.25 23.75 32.9375 23.75 35Z" fill="#48B1DD"/>
</svg>
