<svg width="70" height="70" viewBox="0 0 70 70" fill="none" xmlns="http://www.w3.org/2000/svg">
<path d="M65.9862 12.7659H4.26907C2.52748 12.7659 1.11572 14.2135 1.11572 15.9991V16.4871C1.11572 18.2728 2.52748 19.7203 4.26907 19.7203H65.9862C67.728 19.7203 69.1397 18.2728 69.1397 16.4871V15.9991C69.1397 14.2135 67.728 12.7659 65.9862 12.7659Z" fill="#4A5699"/>
<path d="M65.9862 56.1707H4.26907C2.52748 56.1707 1.11572 57.618 1.11572 59.4038V59.8919C1.11572 61.6774 2.52748 63.1251 4.26907 63.1251H65.9862C67.728 63.1251 69.1397 61.6774 69.1397 59.8919V59.4038C69.1397 57.618 67.728 56.1707 65.9862 56.1707Z" fill="#C45FA0"/>
<path d="M4.74494 12.7659H4.26082C2.47521 12.7659 1.02783 14.2135 1.02783 15.9991V59.892C1.02783 61.6775 2.47521 63.1252 4.26082 63.1252H4.74494C6.53056 63.1252 7.97793 61.6775 7.97793 59.892V15.9991C7.978 14.2135 6.53056 12.7659 4.74494 12.7659ZM65.9064 12.7659H65.4223C63.6368 12.7659 62.1892 14.2135 62.1892 15.9991V59.892C62.1892 61.6775 63.6368 63.1252 65.4223 63.1252H65.9064C67.6921 63.1252 69.1395 61.6775 69.1395 59.892V15.9991C69.1395 14.2135 67.6921 12.7659 65.9064 12.7659Z" fill="#F39A2B"/>
<path d="M29.1633 29.7922H28.6792C26.8936 29.7922 25.4461 31.2395 25.4461 33.0252V35.6718C25.4461 37.4572 26.8936 38.9049 28.6792 38.9049H29.1633C30.9489 38.9049 32.3966 37.4572 32.3966 35.6718V33.0252C32.3966 31.2395 30.9489 29.7922 29.1633 29.7922ZM41.1464 29.7922H40.6622C38.8768 29.7922 37.4294 31.2395 37.4294 33.0252V35.6718C37.4294 37.4572 38.8768 38.9049 40.6622 38.9049H41.1464C42.9318 38.9049 44.3798 37.4572 44.3798 35.6718V33.0252C44.3798 31.2395 42.9318 29.7922 41.1464 29.7922ZM53.1297 29.7922H52.6456C50.8599 29.7922 49.4124 31.2395 49.4124 33.0252V35.6718C49.4124 37.4572 50.8599 38.9049 52.6456 38.9049H53.1297C54.9152 38.9049 56.3625 37.4572 56.3625 35.6718V33.0252C56.3625 31.2395 54.9152 29.7922 53.1297 29.7922ZM53.1297 41.7826H52.6456C50.8599 41.7826 49.4124 43.2298 49.4124 45.0155V47.6621C49.4124 49.4473 50.8599 50.895 52.6456 50.895H53.1297C54.9152 50.895 56.3625 49.4473 56.3625 47.6621V45.0155C56.3625 43.2298 54.9152 41.7826 53.1297 41.7826ZM41.1464 41.7826H40.6622C38.8768 41.7826 37.4294 43.2298 37.4294 45.0155V47.6621C37.4294 49.4473 38.8768 50.895 40.6622 50.895H41.1464C42.9318 50.895 44.3798 49.4473 44.3798 47.6621V45.0155C44.3798 43.2298 42.9318 41.7826 41.1464 41.7826ZM29.1633 41.7826H28.6792C26.8936 41.7826 25.4461 43.2298 25.4461 45.0155V47.6621C25.4461 49.4473 26.8936 50.895 28.6792 50.895H29.1633C30.9489 50.895 32.3966 49.4473 32.3966 47.6621V45.0155C32.3966 43.2298 30.9489 41.7826 29.1633 41.7826ZM17.1801 41.7826H16.6961C14.9104 41.7826 13.4631 43.2298 13.4631 45.0155V47.6621C13.4631 49.4473 14.9104 50.895 16.6961 50.895H17.1801C18.9659 50.895 20.4131 49.4473 20.4131 47.6621V45.0155C20.4131 43.2298 18.9659 41.7826 17.1801 41.7826Z" fill="#E5594F"/>
<path d="M20.4562 6.2832H19.948C18.1621 6.2832 16.7148 7.64957 16.7148 9.33538V21.3446C16.7148 23.0301 18.1621 24.3967 19.948 24.3967H20.4562C22.2421 24.3967 23.6893 23.0301 23.6893 21.3446V9.33538C23.6893 7.64957 22.242 6.2832 20.4562 6.2832ZM49.2158 6.2832H48.7073C46.9219 6.2832 45.4745 7.64957 45.4745 9.33538V21.3446C45.4745 23.0301 46.9219 24.3967 48.7073 24.3967H49.2158C51.0015 24.3967 52.4489 23.0301 52.4489 21.3446V9.33538C52.4489 7.64957 51.0015 6.2832 49.2158 6.2832Z" fill="#6277BA"/>
</svg>
