<svg width="42" height="38" viewBox="0 0 42 38" fill="none" xmlns="http://www.w3.org/2000/svg">
<g clip-path="url(#clip0_247_121)">
<path d="M41.8971 8.19082C41.7226 7.39267 41.329 6.63831 40.7548 6.00411C40.6381 5.87096 40.5161 5.75251 40.3828 5.63235C39.3611 4.70313 37.94 4.17017 36.4837 4.17017H5.51611C4.04357 4.17017 2.65863 4.6897 1.61643 5.63287C1.48452 5.75192 1.36221 5.87156 1.24113 6.00894C0.669375 6.64046 0.277512 7.39378 0.107133 8.19304C0.0359297 8.50692 0 8.83214 0 9.16115V28.8393C0 29.5239 0.153727 30.1905 0.458473 30.8243C0.722203 31.3871 1.12235 31.9206 1.6161 32.3671C1.74046 32.4791 1.864 32.5824 1.9959 32.6832C2.98307 33.4228 4.23306 33.8298 5.51611 33.8298H36.4837C37.7751 33.8298 39.0238 33.4213 40.0084 32.675C40.1399 32.5787 40.2619 32.4775 40.3839 32.3671C40.8612 31.9358 41.2405 31.4401 41.5131 30.8936L41.5491 30.8157C41.8482 30.1939 42 29.5295 42 28.8394V9.16115C42 8.83645 41.9654 8.50907 41.8971 8.19082ZM2.85657 7.35534C2.93459 7.25203 3.03417 7.14597 3.16124 7.03011C3.79198 6.45974 4.62845 6.14587 5.51603 6.14587H36.4836C37.379 6.14587 38.2157 6.46026 38.8395 7.03122C38.9472 7.12971 39.0501 7.23904 39.1398 7.34829L39.3766 7.63626L22.8473 20.6703C22.3378 21.0745 21.6817 21.2969 20.9998 21.2969C20.3246 21.2969 19.669 21.075 19.1534 20.6708L2.64059 7.63997L2.85657 7.35534ZM2.19475 29.013C2.1858 28.9595 2.18375 28.8999 2.18375 28.8393V9.56862L15.011 19.6929L2.3132 29.7095L2.19475 29.013ZM38.1362 31.4568C37.6398 31.716 37.068 31.8535 36.4837 31.8535H5.51611C4.93147 31.8535 4.35996 31.716 3.86384 31.4568L3.34474 31.1846L16.4645 20.8401L17.9023 21.9716C18.7648 22.6491 19.8647 23.0225 20.9999 23.0225C22.1393 23.0225 23.241 22.6491 24.1029 21.9716L25.5402 20.8395L38.6554 31.1852L38.1362 31.4568ZM39.8157 28.8393C39.8157 28.8989 39.8144 28.9578 39.8062 29.0103L39.6925 29.7133L26.9893 19.6983L39.8157 9.57351V28.8393Z" fill="white" stroke="white" stroke-width="1.5625"/>
</g>
<rect x="0.5" y="0.5" width="41" height="37" stroke="black"/>
<defs>
<clipPath id="clip0_247_121">
<rect width="42" height="38" fill="white"/>
</clipPath>
</defs>
</svg>
