<svg width="40" height="40" viewBox="0 0 40 40" fill="none" xmlns="http://www.w3.org/2000/svg">
<path d="M19.9919 37.2168C29.4648 37.2168 37.1441 29.5375 37.1441 20.0647C37.1441 10.5919 29.4648 2.9126 19.9919 2.9126C10.5191 2.9126 2.83984 10.5919 2.83984 20.0647C2.83984 29.5375 10.5191 37.2168 19.9919 37.2168Z" fill="#93358A"/>
<path d="M7.88843 7.96118C14.5551 1.29452 25.4289 1.29452 32.1603 7.96118C38.8269 14.6278 38.8269 25.5016 32.1603 32.233" fill="#601660"/>
<path d="M36.5615 0H16.8851L5.29939 17.4757H13.0664L3.42236 40L35.6554 11.0032H27.7589L36.5615 0Z" fill="#FFAA00"/>
<path d="M36.5615 0L21.0275 11.7152L5.29939 17.4757H17.9855L3.42236 40L35.6554 11.0032H27.7589L36.5615 0Z" fill="#FFBC00"/>
<path d="M28.0178 0H16.8851L5.29939 17.4757H22.9693L3.42236 40L35.6554 11.0032H18.3738L28.0178 0Z" fill="#FFF200"/>
<path d="M28.0178 0L19.28 1.5534L5.29939 17.4757H22.9693L3.42236 40L35.6554 11.0032L15.9143 14.1748L28.0178 0Z" fill="#FFDA00"/>
</svg>
