<svg width="35" height="42" viewBox="0 0 35 42" fill="none" xmlns="http://www.w3.org/2000/svg">
<path d="M11.7325 1V4.11111C11.7325 5.35567 11.7325 5.97796 12.025 6.45331C12.2823 6.87144 12.6926 7.2114 13.1975 7.42447C13.7715 7.66667 14.5227 7.66667 16.0256 7.66667H18.1721C19.6749 7.66667 20.4262 7.66667 21.0001 7.42447C21.5051 7.2114 21.9153 6.87144 22.1726 6.45331C22.4651 5.97796 22.4651 5.35567 22.4651 4.11111V1M9.58603 41H24.6116C27.617 41 29.1198 41 30.2676 40.5156C31.2773 40.0896 32.0983 39.4096 32.6127 38.5733C33.1976 37.6227 33.1976 36.378 33.1976 33.8889V8.11111C33.1976 5.622 33.1976 4.37742 32.6127 3.42671C32.0983 2.59042 31.2773 1.91051 30.2676 1.48442C29.1198 1 27.617 1 24.6116 1H9.58603C6.58065 1 5.07794 1 3.93004 1.48442C2.92029 1.91051 2.09936 2.59042 1.5849 3.42671C1 4.37742 1 5.62198 1 8.11111V33.8889C1 36.378 1 37.6227 1.5849 38.5733C2.09936 39.4096 2.92029 40.0896 3.93004 40.5156C5.07794 41 6.58062 41 9.58603 41Z" stroke="white" stroke-width="2" stroke-linecap="round" stroke-linejoin="round"/>
</svg>
