<svg width="35" height="35" viewBox="0 0 35 35" fill="none" xmlns="http://www.w3.org/2000/svg">
<path d="M17.3625 0L21.375 2.325H26.025L28.35 6.375L32.4 8.7V13.35L34.725 17.3625L32.4 21.375V26.025L28.35 28.35L26.025 32.4H21.375L17.3625 34.725L13.35 32.4H8.7L6.375 28.35L2.325 26.025V21.375L0 17.3625L2.325 13.35V8.7L6.375 6.375L8.7 2.325H13.35L17.3625 0Z" fill="#647EFF"/>
<path d="M17.3624 30.075C10.3499 30.075 4.6499 24.375 4.6499 17.3625C4.6499 10.35 10.3499 4.65002 17.3624 4.65002C24.3749 4.65002 30.0749 10.35 30.0749 17.3625C30.0749 24.375 24.3749 30.075 17.3624 30.075ZM17.3624 5.73752C10.9499 5.73752 5.7374 10.95 5.7374 17.3625C5.7374 23.775 10.9499 28.9875 17.3624 28.9875C23.7749 28.9875 28.9874 23.775 28.9874 17.3625C28.9874 10.95 23.7749 5.73752 17.3624 5.73752Z" fill="white"/>
<path d="M15.9751 22.0875L10.4626 17.7C10.0126 17.325 9.93761 16.6875 10.3126 16.2375C10.6876 15.7875 11.3251 15.7125 11.7751 16.0875L16.5001 19.875L22.8001 12.825C23.1751 12.4125 23.8501 12.375 24.2626 12.75C24.6751 13.125 24.7126 13.8 24.3376 14.2125L17.4001 21.975C17.0251 22.3875 16.3876 22.425 15.9751 22.0875Z" fill="#FFD77A"/>
</svg>
