<svg width="50" height="50" viewBox="0 0 50 50" fill="none" xmlns="http://www.w3.org/2000/svg">
<rect x="0.5" y="0.5" width="49" height="49" stroke="black"/>
<path fill-rule="evenodd" clip-rule="evenodd" d="M7.29163 25C7.29163 15.22 15.2199 7.29167 24.9999 7.29167C34.7799 7.29167 42.7083 15.22 42.7083 25C42.7083 34.78 34.7799 42.7083 24.9999 42.7083C21.5162 42.7083 18.2734 41.7046 15.5374 39.971C15.0282 39.6485 14.4043 39.5623 13.8267 39.7346L7.82844 41.5248L10.0869 36.2402C10.3538 35.6156 10.2995 34.9002 9.94132 34.3231C8.2618 31.6167 7.29163 28.4248 7.29163 25ZM24.9999 3.125C12.9187 3.125 3.12496 12.9188 3.12496 25C3.12496 28.8294 4.11067 32.434 5.84294 35.5681L2.2509 43.9729C1.93336 44.716 2.07411 45.5756 2.61205 46.1785C3.14998 46.7817 3.98809 47.0192 4.7624 46.7879L14.1362 43.9906C17.3384 45.826 21.0493 46.875 24.9999 46.875C37.0812 46.875 46.8749 37.0812 46.8749 25C46.8749 12.9188 37.0812 3.125 24.9999 3.125ZM29.776 29.5467L27.038 31.4752C25.7558 30.7448 24.338 29.7252 22.916 28.3031C21.4376 26.8248 20.3416 25.2985 19.5335 23.8985L21.2735 22.4217C22.0201 21.7879 22.2245 20.7194 21.7645 19.8547L19.5475 15.6881C19.249 15.127 18.7107 14.7329 18.0857 14.6178C17.4606 14.5027 16.8172 14.6792 16.3384 15.0971L15.6811 15.6707C14.1004 17.0503 13.1655 19.3173 13.9404 21.6127C14.7436 23.9923 16.4579 27.7375 19.9698 31.2494C23.748 35.0277 27.586 36.5156 29.8303 37.0935C31.6387 37.559 33.3499 36.935 34.5558 35.9525L35.788 34.9483C36.3151 34.519 36.5995 33.8592 36.5499 33.181C36.5001 32.5029 36.1226 31.8917 35.5385 31.5435L32.042 29.4602C31.3358 29.0396 30.4483 29.0733 29.776 29.5467Z" fill="white"/>
</svg>
